<svg xmlns="http://www.w3.org/2000/svg" width="30.416" height="37.822" viewBox="0 0 30.416 37.822">
  <path id="admin" d="M43.965,56.41a14.22,14.22,0,0,0-6.552-6.986,12.276,12.276,0,0,0,.1-16.765c-1.929-2.567-7.675-2.274-5.305,1.757,1.71,1.769,4.174,3.861,3.817,6.68a8.52,8.52,0,0,1-12.6,5.937c-6.952-4.872-.017-12.44,6.262-13.141,1.009-.432.65-2-.295-2.253-10.135-1.469-15.8,13.644-7.164,19.255-4.694.747-10.576,19.887-3.446,17.768,1.209-1.092.787-3.169.852-4.646.049-4.414,2.525-8.229,4.374-12.067A11.737,11.737,0,0,0,35.95,50.692c2.327,3.345,5.026,7.038,5.438,11.174a12.142,12.142,0,0,0,.709,4.628,1.824,1.824,0,0,0,3.1,0c1.665-3.055-.095-7.082-1.235-10.084Z" transform="translate(-15.466 -31.003)" fill="#fff"/>
</svg>
