<svg xmlns="http://www.w3.org/2000/svg" width="92.721" height="102.512" viewBox="0 0 92.721 102.512">
  <g id="arrow-work2" transform="matrix(0.914, 0.407, -0.407, 0.914, 43.529, -34.898)">
    <g id="Group_140" data-name="Group 140" transform="translate(-0.001 27.545)">
      <path id="Path_192" data-name="Path 192" d="M10.583,34.354c-3.153.788-6.779-.473-9.932-.788a.712.712,0,0,1,0-1.419,34.812,34.812,0,0,1,9.932.788C11.214,33.25,11.214,34.2,10.583,34.354Z" transform="translate(0.001 44.864)"/>
      <path id="Path_193" data-name="Path 193" d="M88.628,40.725c-2.207,2.207-5.676,2.68-8.514,2.523a.473.473,0,0,1,0-.946,19.964,19.964,0,0,0,4.414-.946c1.261-.473,2.365-1.1,3.626-1.577C88.628,39.464,89.1,40.252,88.628,40.725Z" transform="translate(-59.124 34.237)"/>
      <path id="Path_194" data-name="Path 194" d="M156.867,73.092a9.936,9.936,0,0,1-3.153,3.626,21.561,21.561,0,0,1-3.784,2.838.4.4,0,1,1-.473-.631,21.067,21.067,0,0,0,3.311-3.153c1.1-1.1,1.892-2.523,3-3.626C156.236,71.515,157.182,72.3,156.867,73.092Z" transform="translate(-110.81 -10.427)"/>
      <path id="Path_195" data-name="Path 195" d="M187.513,140.541a.638.638,0,1,1-1.1-.631c.315-.788.788-1.734,1.1-2.523.315-1.1.157-2.207.63-3.153a.607.607,0,0,1,1.1,0C190.035,135.969,188.459,138.807,187.513,140.541Z" transform="translate(-138.302 -87.651)"/>
      <path id="Path_196" data-name="Path 196" d="M202.709,196a21.564,21.564,0,0,1-.315,4.572c-.158.788-1.1.788-1.1,0a35.628,35.628,0,0,1-.158-4.1c0-1.419-.315-2.838.158-4.257a.769.769,0,0,1,1.419,0A10.168,10.168,0,0,1,202.709,196Z" transform="translate(-149.242 -162.817)"/>
      <path id="Path_197" data-name="Path 197" d="M180.551,273.835a31.819,31.819,0,0,0-2.207-4.729c-.788-1.419-1.892-2.838-2.05-4.415-.158-.788.946-.946,1.419-.63,1.261,1.1,1.892,3,2.523,4.572a18.528,18.528,0,0,1,1.577,4.73C181.97,274.308,180.708,274.623,180.551,273.835Z" transform="translate(-130.867 -254.526)"/>
      <path id="Path_198" data-name="Path 198" d="M147.69,318.83c-.946-1.1-1.892-2.365-2.838-3.311a7,7,0,0,0-1.734-1.261c-.631-.315-.946-.315-1.419-.946a.872.872,0,0,1,.473-1.261c1.419-.316,2.68,1.1,3.626,2.05a19.474,19.474,0,0,1,2.68,4.257C148.636,318.83,148.006,319.3,147.69,318.83Z" transform="translate(-105.101 -311.661)"/>
      <path id="Path_199" data-name="Path 199" d="M102.977,330.963a4.472,4.472,0,0,0-2.68-1.1c-.788,0-1.734.158-2.365-.473a.762.762,0,0,1,0-1.1c1.577-1.576,4.73.631,5.676,1.892C103.923,330.648,103.45,331.279,102.977,330.963Z" transform="translate(-72.528 -327.736)"/>
      <path id="Path_200" data-name="Path 200" d="M54.939,299.669a17.9,17.9,0,0,0-3.941.946,6.531,6.531,0,0,0-2.838,3,.864.864,0,0,1-1.577-.473c-.158-4.257,5.2-5.045,8.356-4.572C55.412,298.723,55.412,299.669,54.939,299.669Z" transform="translate(-34.58 -293.131)"/>
      <path id="Path_201" data-name="Path 201" d="M40.312,245.536c-1.261,2.365-.946,4.73-1.419,7.252a.657.657,0,0,1-1.261,0,10.42,10.42,0,0,1,1.892-7.725C39.839,244.59,40.47,244.9,40.312,245.536Z" transform="translate(-27.836 -228.592)"/>
      <path id="Path_202" data-name="Path 202" d="M41.271,179.471c-2.838-2.68-3.468-6.622-3.311-10.248,0-.631,1.1-.631,1.1,0a16.5,16.5,0,0,0,3.153,9.3A.669.669,0,1,1,41.271,179.471Z" transform="translate(-28.165 -135.411)"/>
      <path id="Path_203" data-name="Path 203" d="M66.5,132.886c-2.838-1.419-5.045-4.1-6.779-6.779-.473-.631.631-1.261.946-.631a61.055,61.055,0,0,0,6.464,6.306C67.764,132.413,67.133,133.2,66.5,132.886Z" transform="translate(-44.251 -77.474)"/>
      <path id="Path_204" data-name="Path 204" d="M104.162,94.62c-2.207,0-4.73-1.892-6.149-3.468a.669.669,0,1,1,.946-.946,10.358,10.358,0,0,0,2.68,1.892,25.724,25.724,0,0,1,3,1.419C105.108,93.832,104.635,94.62,104.162,94.62Z" transform="translate(-72.61 -30.064)"/>
      <path id="Path_205" data-name="Path 205" d="M179.094,67.3a31.571,31.571,0,0,1-3.784-.631,21.529,21.529,0,0,1-4.572-1.1.651.651,0,0,1,.315-1.261,42.5,42.5,0,0,0,4.414.631c1.261.158,2.838.158,3.941.946A.74.74,0,0,1,179.094,67.3Z" transform="translate(-126.415 3.873)"/>
      <path id="Path_206" data-name="Path 206" d="M237.718,59c-2.05.473-4.572,0-6.779-.158a.553.553,0,1,1,0-1.1c2.207-.158,4.572-.631,6.779-.158A.721.721,0,0,1,237.718,59Z" transform="translate(-171.007 13.752)"/>
      <path id="Path_207" data-name="Path 207" d="M294.633,61.927a11.688,11.688,0,0,1-3.311.158,25.546,25.546,0,0,1-3.469-.158.632.632,0,0,1,0-1.261,25.542,25.542,0,0,0,3.469-.158,11.689,11.689,0,0,1,3.311.158C295.263,60.666,295.263,61.612,294.633,61.927Z" transform="translate(-213.26 10.039)"/>
      <path id="Path_208" data-name="Path 208" d="M328.035,34.52a70.691,70.691,0,0,1-6.306,5.676c-1.577,1.261-3.942,3.626-5.991,3.468a1.154,1.154,0,0,1-.946-1.734c.946-1.577,3.153-2.523,4.572-3.468a64.574,64.574,0,0,0,5.2-4.414,101.636,101.636,0,0,1-9.3-4.572c-.946-.473-.315-2.207.789-1.892,3.941,1.261,7.41,3.784,11.509,4.572C328.508,32.313,328.666,33.732,328.035,34.52Z" transform="translate(-233.577 36.973)"/>
    </g>
  </g>
</svg>
