<svg xmlns="http://www.w3.org/2000/svg" width="133.796" height="113.189" viewBox="0 0 133.796 113.189">
  <g id="arrow-work1" transform="matrix(0.914, 0.407, -0.407, 0.914, 35.968, -26.51)">
    <g id="Group_140" data-name="Group 140" transform="translate(-0.001 27.545)">
      <path id="Path_192" data-name="Path 192" d="M13.319,32.413c-3.968-.992-8.532.6-12.5.992a.9.9,0,0,0,0,1.786,43.811,43.811,0,0,0,12.5-.992C14.113,33.8,14.113,32.611,13.319,32.413Z" transform="translate(0.001 -30.618)"/>
      <path id="Path_193" data-name="Path 193" d="M90.95,42.916c-2.778-2.778-7.143-3.373-10.714-3.175a.6.6,0,0,0,0,1.19,25.124,25.124,0,0,1,5.555,1.19c1.587.6,2.976,1.389,4.563,1.984C90.95,44.5,91.546,43.511,90.95,42.916Z" transform="translate(-53.821 -35.764)"/>
      <path id="Path_194" data-name="Path 194" d="M158.833,80.159a12.5,12.5,0,0,0-3.968-4.563,27.135,27.135,0,0,0-4.762-3.571.5.5,0,1,0-.6.794,26.512,26.512,0,0,1,4.167,3.968c1.389,1.389,2.381,3.175,3.77,4.563C158.039,82.144,159.23,81.151,158.833,80.159Z" transform="translate(-100.871 -57.531)"/>
      <path id="Path_195" data-name="Path 195" d="M187.828,134.336a.8.8,0,1,0-1.389.794c.4.992.992,2.183,1.389,3.175.4,1.389.2,2.778.793,3.968a.763.763,0,0,0,1.389,0C191,140.09,189.018,136.518,187.828,134.336Z" transform="translate(-125.897 -99.406)"/>
      <path id="Path_196" data-name="Path 196" d="M203.143,198.241a27.137,27.137,0,0,0-.4-5.754c-.2-.992-1.389-.992-1.389,0a44.842,44.842,0,0,0-.2,5.159c0,1.786-.4,3.571.2,5.357a.967.967,0,0,0,1.786,0A12.8,12.8,0,0,0,203.143,198.241Z" transform="translate(-135.856 -138.51)"/>
      <path id="Path_197" data-name="Path 197" d="M181.655,264.47a40.045,40.045,0,0,1-2.778,5.952c-.992,1.786-2.381,3.572-2.579,5.556-.2.992,1.19,1.19,1.786.793,1.587-1.389,2.381-3.77,3.175-5.754a23.319,23.319,0,0,0,1.984-5.952C183.441,263.875,181.853,263.478,181.655,264.47Z" transform="translate(-119.129 -187.279)"/>
      <path id="Path_198" data-name="Path 198" d="M149.272,312.252c-1.19,1.389-2.381,2.976-3.571,4.167a8.809,8.809,0,0,1-2.182,1.587c-.794.4-1.19.4-1.786,1.19a1.1,1.1,0,0,0,.6,1.587c1.786.4,3.373-1.389,4.563-2.579a24.507,24.507,0,0,0,3.373-5.357C150.462,312.252,149.668,311.657,149.272,312.252Z" transform="translate(-95.674 -219.784)"/>
      <path id="Path_199" data-name="Path 199" d="M104.342,327.843a5.628,5.628,0,0,1-3.373,1.389c-.992,0-2.183-.2-2.976.6a.959.959,0,0,0,0,1.389c1.984,1.984,5.952-.794,7.143-2.381C105.533,328.24,104.937,327.446,104.342,327.843Z" transform="translate(-66.022 -230.414)"/>
      <path id="Path_200" data-name="Path 200" d="M57.1,303.881a22.53,22.53,0,0,1-4.96-1.19c-1.786-.793-2.579-2.182-3.571-3.77a1.087,1.087,0,0,0-1.984.6c-.2,5.357,6.548,6.349,10.516,5.754C57.7,305.071,57.7,303.881,57.1,303.881Z" transform="translate(-31.478 -210.619)"/>
      <path id="Path_201" data-name="Path 201" d="M41.04,254.557c-1.587-2.976-1.19-5.952-1.786-9.127a.827.827,0,0,0-1.587,0,13.113,13.113,0,0,0,2.381,9.722C40.445,255.747,41.239,255.35,41.04,254.557Z" transform="translate(-25.339 -174.39)"/>
      <path id="Path_202" data-name="Path 202" d="M42.133,169.012c-3.571,3.373-4.365,8.334-4.167,12.9,0,.794,1.389.794,1.389,0A20.761,20.761,0,0,1,43.323,170.2.842.842,0,1,0,42.133,169.012Z" transform="translate(-25.638 -122.972)"/>
      <path id="Path_203" data-name="Path 203" d="M68.285,125.306c-3.571,1.786-6.349,5.159-8.532,8.532-.6.794.794,1.587,1.19.794,2.381-2.976,5.357-5.357,8.135-7.936C69.872,125.9,69.078,124.909,68.285,125.306Z" transform="translate(-40.282 -93.551)"/>
      <path id="Path_204" data-name="Path 204" d="M105.805,90c-2.778,0-5.952,2.381-7.738,4.365a.842.842,0,0,0,1.19,1.19,13.035,13.035,0,0,1,3.373-2.381,32.372,32.372,0,0,0,3.77-1.786C107,90.99,106.4,90,105.805,90Z" transform="translate(-66.097 -69.751)"/>
      <path id="Path_205" data-name="Path 205" d="M181.372,64.294a39.73,39.73,0,0,0-4.762.794,27.093,27.093,0,0,0-5.754,1.389.819.819,0,0,0,.4,1.587,53.485,53.485,0,0,1,5.555-.794c1.587-.2,3.571-.2,4.96-1.19A.931.931,0,0,0,181.372,64.294Z" transform="translate(-115.076 -52.38)"/>
      <path id="Path_206" data-name="Path 206" d="M239.623,57.637c-2.579-.6-5.754,0-8.532.2a.7.7,0,1,0,0,1.389c2.778.2,5.754.794,8.532.2A.908.908,0,0,0,239.623,57.637Z" transform="translate(-155.669 -47.707)"/>
      <path id="Path_207" data-name="Path 207" d="M296.538,60.717a14.709,14.709,0,0,0-4.167-.2,32.149,32.149,0,0,0-4.365.2.8.8,0,0,0,0,1.587,32.145,32.145,0,0,1,4.365.2,14.71,14.71,0,0,0,4.167-.2C297.332,62.3,297.332,61.114,296.538,60.717Z" transform="translate(-194.132 -49.795)"/>
      <path id="Path_208" data-name="Path 208" d="M331.5,39.062a88.966,88.966,0,0,0-7.936-7.143c-1.984-1.587-4.961-4.563-7.54-4.365a1.452,1.452,0,0,0-1.19,2.183c1.19,1.984,3.968,3.175,5.754,4.365a81.26,81.26,0,0,1,6.548,5.555,127.907,127.907,0,0,0-11.706,5.754c-1.19.6-.4,2.778.992,2.381,4.96-1.587,9.325-4.762,14.484-5.754C332.1,41.84,332.294,40.054,331.5,39.062Z" transform="translate(-212.626 -27.545)"/>
    </g>
  </g>
</svg>
