<svg xmlns="http://www.w3.org/2000/svg" width="484.896" height="405.878" viewBox="0 0 484.896 405.878">
  <g id="banner-leftlayer" transform="translate(291.067 -521.118)">
    <path id="Path_48" data-name="Path 48" d="M154.873,232.493C9.788,212.411-7.672,122.614,10.122,64.483c0,0,99.931-118.079,209.047-18.046S430.208,75.735,433.4,151.524" transform="matrix(-0.875, 0.485, -0.485, -0.875, 200.705, 722.321)" fill="#d2edfd"/>
    <path id="Path_46" data-name="Path 46" d="M199.587,77.056S197.237-23.375,98.035,5.9s-79.49,140.5-46.1,165.283c33.441,24.734,145.3-30.931,147.655-94.127" transform="translate(-73.376 525.188)" fill="#fecb9d"/>
    <g id="Group_480" data-name="Group 480">
      <path id="Path_49" data-name="Path 49" d="M28.345,33.074s-.317,12.348-12.438,8.8C3.786,38.3,6.228,24.638,10.344,21.585c4.093-3.076,17.73,3.731,18,11.488" transform="translate(90.656 681.546)" fill="#3d3d3c"/>
      <path id="Path_50" data-name="Path 50" d="M14.756,36.285c-10.516-3.347-9-14.157-5.608-16.441,3.392-2.261,15.378,3.731,15.9,9.928" transform="translate(112.382 661.652)" fill="#3d3d3c"/>
    </g>
  </g>
</svg>
