<svg id="cart-item" xmlns="http://www.w3.org/2000/svg" width="35.088" height="31.447" viewBox="0 0 35.088 31.447">
  <path id="Path_1361" data-name="Path 1361" d="M3.253,14.563h.838l3.367,15a3.967,3.967,0,0,0,3.877,3.087H20.9a1.253,1.253,0,1,0,0-2.506H11.336A1.47,1.47,0,0,1,9.9,29.006L6.661,14.569H32.428l-1.7,7.6a1.253,1.253,0,1,0,2.446.547L35,14.563h.837a1.253,1.253,0,1,0,0-2.506H32.076L28.343,4.17a1.253,1.253,0,1,0-2.265,1.072L29.3,12.056H9.784L13.01,5.242A1.253,1.253,0,1,0,10.745,4.17L7.012,12.056H3.253a1.253,1.253,0,1,0,0,2.506Z" transform="translate(-2 -3.453)" fill="#fff"/>
  <path id="Path_1362" data-name="Path 1362" d="M19.5,14.286a1.253,1.253,0,0,0-1.253,1.253v8.145a1.253,1.253,0,0,0,2.506,0V15.539A1.253,1.253,0,0,0,19.5,14.286Z" transform="translate(2.113 -0.71)" fill="#fff"/>
  <path id="Path_1363" data-name="Path 1363" d="M11.75,15.539v8.145a1.253,1.253,0,0,0,2.506,0V15.539a1.253,1.253,0,0,0-2.506,0Z" transform="translate(0.468 -0.71)" fill="#fff"/>
  <path id="Path_1364" data-name="Path 1364" d="M24.7,20.96a1.253,1.253,0,0,0-1.253,1.253v2.247H21.2a1.253,1.253,0,1,0,0,2.506h2.247v2.247a1.253,1.253,0,0,0,2.506,0V26.967H28.2a1.253,1.253,0,1,0,0-2.506H25.955V22.214A1.253,1.253,0,0,0,24.7,20.96Z" transform="translate(2.543 0.979)" fill="#fff"/>
</svg>
