<svg xmlns="http://www.w3.org/2000/svg" width="60.408" height="51.667" viewBox="0 0 60.408 51.667">
  <g id="cart" transform="translate(-1.788 -6.169)">
    <path id="Path_1430" data-name="Path 1430" d="M55.667,36.37q-2.867-.059-5.739-.142c.143-1.812.322-3.621.478-5.439l4.8-.029a1.032,1.032,0,0,0,0-2.062l-4.669.016c.05-1.041.069-2.081.021-3.119a.777.777,0,0,0-1.519-.206,30.9,30.9,0,0,0-.691,3.333q-3.67.016-7.341.053c0-.87-.006-1.739-.057-2.6a.985.985,0,0,0-1.969,0c-.107.873-.173,1.753-.223,2.634q-3.554.046-7.106.13c.018-.857.029-1.715.02-2.573-.006-.618-.965-.785-1.1-.15-.2.917-.358,1.841-.5,2.768-1.5.04-3,.074-4.5.129a.762.762,0,0,0,0,1.523c1.422.038,2.846.056,4.269.081q-.3,2.581-.4,5.183c-1.5.016-3.006.042-4.508.09a.739.739,0,0,0,0,1.477c1.477.112,2.956.2,4.436.285q-.057,1.634-.077,3.268a3.162,3.162,0,0,0,.284,2,.811.811,0,0,0,1.376,0,3.263,3.263,0,0,0,.3-2c.009-1.057.03-2.115.075-3.171q3.567.168,7.142.256l-.127,3.732a3.668,3.668,0,0,0,.26,2.182.962.962,0,0,0,1.639,0,3.8,3.8,0,0,0,.368-2.182q.054-1.838.107-3.675,3.291.072,6.581.121c-.095,2.278-.729,4.69-.419,6.956.2,1.19,1.866.966,2.192,0,.476-2.246.389-4.624.679-6.914q2.961.049,5.917.114a1.032,1.032,0,0,0,0-2.062Zm-17.1-1.178-.026.752q-3.574-.065-7.145-.06c.056-1.713.154-3.426.212-5.138q3.533.051,7.067.062C38.632,32.273,38.617,33.739,38.567,35.192Zm9.028.063c-.034.3-.06.6-.091.907q-3.361-.094-6.724-.174c.042-1.717.132-3.445.193-5.169q3.549,0,7.1-.015C47.894,32.288,47.759,33.78,47.595,35.255Z" fill="#fff"/>
    <path id="Path_1431" data-name="Path 1431" d="M35.151,16c-.674-.324-1.717-5.573-3.32-3.78-1.057,1.977.511,4.231,1.9,5.614,1.33,1.086,2.669-.728,1.422-1.834Z" fill="#fff"/>
    <path id="Path_1432" data-name="Path 1432" d="M41.265,16.427c1.4-.062,1.088-2.129,1.362-3.129a18.938,18.938,0,0,0,.483-3.745.933.933,0,0,0-1.725-.467,10.6,10.6,0,0,0-1.176,4.731C40.214,14.746,39.917,16.387,41.265,16.427Z" fill="#fff"/>
    <path id="Path_1433" data-name="Path 1433" d="M47.8,17.289c1.578-1.16,3.294-2.338,3.913-4.3a.783.783,0,0,0-1.136-.873,9.516,9.516,0,0,0-3.106,2.571c-.565.644-1.73,1.385-1.016,2.33a1.032,1.032,0,0,0,1.345.269Z" fill="#fff"/>
    <path id="Path_1434" data-name="Path 1434" d="M57.694,22.183c-11.889-.222-23.87.443-35.772.833,1.182-5.263.65-12.189-4.879-14.74C15.35,5.546,11.659,6.259,8.935,6.238c-1.125.077-4.494-.445-4.47,1.206C2.471,7.331.837,9.7,2.43,11.249c1,.725,2.356.554,3.524.775,2.645.244,10.284,1.132,11.335-1.935,9.767,7.741-7.722,30.557,6.829,37.4a5.8,5.8,0,0,0-.087,9.383c4.553,3.342,12.073-3.047,8.562-7.9,6.084.215,12.181,1.123,18.261.707-2.238,2.54-2.369,6.838,1.5,7.757,2.112.638,4.435.65,6.109-.97a5.094,5.094,0,0,0-2.391-8.639,8.875,8.875,0,0,0,2.508-3.243,40.159,40.159,0,0,0,3.5-13.392c.334-3.627.228-8.5-4.387-9.007ZM15.6,9.788a2.156,2.156,0,0,1-1.2.55,26.564,26.564,0,0,1-9.34.225c-.467-.048-1.6.029-1.875-.441C2.636,9.16,4.443,8.429,4.951,8c.892.514,2.378.164,3.312.114C9.582,8.107,16.24,7.588,15.6,9.788ZM29.767,55.023c-5.214,4.081-9.4-3.864-3.98-6.938a19.217,19.217,0,0,0,2.693.546c.518.452,1.245.564,1.775.97,1.975,1.458,1.21,4.052-.488,5.422ZM56.091,50.47a2.649,2.649,0,0,1,1.194,4.141c-1.246,1.744-4.062,1.265-5.735.272-1.44-1.416-.3-4.086.755-5.453a12.659,12.659,0,0,0,1.6-.463C53.944,50.07,55.328,50.092,56.091,50.47Zm3.278-14.442c-1.6,6.9-2.026,13.12-10.956,12.2C43.7,48.055,39,47.425,34.3,47.1c-3.854-.265-8.8-.034-11.745-3-4.8-5.327-1.484-12.944-.916-19.178,9.845-.374,19.735-.843,29.607-.814,2.331.132,4.8-.337,7.075.259,3.419,1.54,1.622,8.744,1.052,11.661Z" fill="#fff"/>
  </g>
</svg>
