<svg xmlns="http://www.w3.org/2000/svg" width="120.589" height="106.935" viewBox="0 0 120.589 106.935">
  <path id="equestrian" d="M104.909,54.844c-.058-3.807,5.018-2.867,5.074.221C109.773,58.419,104.368,58.229,104.909,54.844ZM119.878,44.17c-1.854,1.437-3.764,2.816-5.7,4.165,2.608,6.981,3.484,14.61,4.841,21.754.475,1.856-2.116,3.5-3.088,4.7a2.258,2.258,0,0,1-2.555.465l-7.593-2.931c-1.229-.4-1.453-1.534-1.458-2.682-3.441-1.473-6.966-3.919-8.528-7.3-.975-.719-1.938-1.455-2.875-2.225-3.665,1.77-6.313,5.94-8.185,9.3-.01.033-.033.074-.046.109q8.636,1.6,17.229,3.373a1.918,1.918,0,0,1,1.313,2.735Q98.137,87.826,92.78,99.9a2.293,2.293,0,0,1-.975,1.077L78.639,108.6a2.532,2.532,0,0,1-3.8-1.8l-.206-1.435L73.08,94.027a2.538,2.538,0,0,1,2.1-2.847l7.449-1.336,3.949-7.624c-4.14-.457-9.656-.747-13.965-2.108-6.74,3.82-14.745,3.6-22.092,1.981-.109.5-.213,1-.31,1.5l11.875,7.319a2.107,2.107,0,0,1,.869,1.074l5.521,15.332a2.428,2.428,0,0,1-2.491,3.223l-14.222-.973a2.41,2.41,0,0,1-2.23-2.659c.287-2.636.894-5.016,1.275-7.2-4.168-2.319-11.451-6.42-14.722-8.264a2.462,2.462,0,0,1-1.244-2.179l.124-7.466c-17.785-1.45-20.622-20.977-10.92-29.894a10.633,10.633,0,0,0-4.058-.678c-5.021.444-9.1,6.171-14.887,5.051C2.55,55.964-1.521,54.326.584,51.3l2.062-2.689c3.073-3.977,7.3-9.084,13.224-8.373,5.508.739,9.232,4.734,11.477,9.318a19.7,19.7,0,0,1,12.3-1.768l4.665.6L37.64,43.69a14.3,14.3,0,0,1-4.267-4.018c-3.9-6.471.35-14.986,6.941-17.407,1.417-.63,17.628-6.933,20.543-8.043,4.551-2.288,10.7-2.943,14.72.813a10.921,10.921,0,0,1,1.14-5c4.419-9.12,18.524-8.345,22.006,1.189,4.063,9.221-5.361,19.781-14.915,16.2a10.936,10.936,0,0,1-1.95-.914c1.156,2.768,2.268,5.607,3.352,8.442,11.032-7.121,28.345-5.864,35.026,6.618a1.907,1.907,0,0,1-.358,2.6ZM86.246,37.645c.528,1.409,1.034,2.791,1.536,4.168a51.294,51.294,0,0,1,6.367-1.874c6.547-1.806,14.791-.053,18.7,5.821q1.429-1.611,2.908-3.169c-4.851-5.633-12.63-7.893-19.977-7.093a46.935,46.935,0,0,0-9.536,2.149ZM70.292,35.6A28.019,28.019,0,0,1,59,40.665l1.608.96c2.027,1.222,4.594,2.517,6.253,4.427a14.641,14.641,0,0,1,5.206-4.16Q71.14,38.76,70.292,35.6Zm1.252,12.66c.767-.15,1.529-.338,2.275-.533-.1-.31-.193-.625-.295-.963a12.746,12.746,0,0,1-1.981,1.5ZM40.388,39.6,56.532,50.752a2.508,2.508,0,0,1,1.062,2.593c-1.054,4.975-2.8,13.226-3.87,18.146-.792,2.161,1.425,5.265,3.835,4.068a3.548,3.548,0,0,0,1.867-2.146l1.056-4.774c1.059-4.7,2.42-9.813,3.555-14.5.124-.47.587-2.59.691-3a4.138,4.138,0,0,0-1.813-4.02c-2.6-1.77-9.6-6.623-12.274-8.482-4.937-3.53-2.819-4.7,1.412-2.11l3.279,1.956a28.156,28.156,0,0,1,14.133-6.067c-.477-1.854-.96-3.708-1.394-5.577-.244-1.051.14-1.961.853-2.032a1.78,1.78,0,0,1,1.559,1.239C73.164,32.1,75.6,38.382,77.85,44.6c.226.607.792,2.225,1.006,2.816a2.4,2.4,0,0,0,3.685,1.262c1.585-.917,1.778-2.352,1.084-3.9-2.352-7.365-4.785-15.41-6.557-22.938a1.693,1.693,0,0,1,.467-1.91.714.714,0,0,1,.152-.107.256.256,0,0,1,.046-.023.82.82,0,0,1,.277-.142,1.813,1.813,0,0,1,1.633.8c5.79,7.7,17.876,1.511,14.372-7.357a7.644,7.644,0,0,0-9.239-4.566,8.473,8.473,0,0,0-6.192,9.364c.1.853-.211,1.684-.907,1.849a.3.3,0,0,1-.282.086c-.678-.071-1.661-1.366-3.048-2.529-3.688-3.22-8.167-2-12.144.135C57.21,19.69,41.246,26.565,40.3,27.34c-4.421,3.053-5.234,9.673.084,12.261ZM22.6,48.149c-3.4-3.1-8.013-5.046-11.662-1.4a39.369,39.369,0,0,0-4.046,4.668c2.044-.053,3.9-1.2,6.273-2.286A11.9,11.9,0,0,1,22.6,48.149ZM37.47,76.964a2.443,2.443,0,0,1,2.458,2.428c0,.023-.036,5.661-.053,8.411,4.2,2.331,11.657,6.479,14.956,8.353a2.446,2.446,0,0,1,1.023,1.089,9.226,9.226,0,0,1,4.289.157l-1.084-3.258c-2.58-1.74-11.959-8.012-12.038-8.081a1.812,1.812,0,0,1-.742-1.953l2.529-9.8a7.208,7.208,0,0,1-.076-3.18c.2-.983.427-2.1.665-3.261a11.317,11.317,0,0,0-.919-3.192c-2.507-5.3-.47-5.582,1.922-1.679.65-3.142,1.316-6.341,1.877-9.036L48.415,51.25c-3.053.137-7.474-.455-9.031-.432-12.111-2.164-21.874,11.837-13.61,21.594C28.517,76.032,33.058,77,37.47,76.964Zm17.455,27.857,7.9.65-1.214-3.652a9.339,9.339,0,0,1-6.039-.157C55.354,102.761,55.128,103.813,54.924,104.821ZM81.26,95.056l-2.908.571c.277,1.9.668,4.584.983,6.755l3.035-1.714A8.356,8.356,0,0,1,81.26,95.056Zm8.932-37.307q-2.526-2.309-4.846-4.876C81.938,54.9,77.093,54.5,74.9,50.564a42.782,42.782,0,0,1-5.478.663c-.33.013-.579-.013-.856-.023-.1,1.29-.45,2.649-.617,3.771l-1,4.914c-.7,3.256-1.4,6.458-2.034,9.691l-.968,4.965a7.866,7.866,0,0,1-1.971,3.515c2.024-.091,4.086-.193,6.131-.292-1.811-1.564-2.728-3.751-2.016-6.926a4.1,4.1,0,0,1,1.595-2.433c2.116-.945,1.023,1.4.889,2.959-.528,3.172,1.854,5.079,4.66,5.287,5.595.968,11.184,1.178,16.954,1.625a2.183,2.183,0,0,1,1.778,3.144l-5.531,11.55a2.5,2.5,0,0,1-1.074,1.077,8.348,8.348,0,0,1,1.056,4.325l2.253-1.272q4.91-10.567,10-21.053c-4.917-1.331-9.828-2.682-14.725-4.1-3.787-1.13-3.375-2.733-.744-2.634a4.314,4.314,0,0,1,.29-2.753,20.958,20.958,0,0,1,6.707-8.815ZM107.5,65.942c1.178.383,1.435,1.46,1.481,2.565l4.63,1.653.325-.345C110.367,51.778,111.014,39,88.991,46.006A7.2,7.2,0,0,1,87.65,50.77a59.92,59.92,0,0,1,7.6,4.83,10.917,10.917,0,0,1,1.816-.2,1.834,1.834,0,0,1,1.844,1.839,7.3,7.3,0,0,0,.063,1.267,60.882,60.882,0,0,1,7.24,6.931c.424.17.853.338,1.283.5ZM11.179,8.689a142.842,142.842,0,0,0,38.595-.005A1.238,1.238,0,0,0,50.78,7.6a1.272,1.272,0,0,0-1.008-1.453,142.926,142.926,0,0,0-38.592.005,1.308,1.308,0,0,0,0,2.54Zm-.637,25.089a21.2,21.2,0,0,0,14.473-.063c.19-.079.348-.51.378-1.087.036-.7-.135-1.351-.378-1.453a20.665,20.665,0,0,0-14.473.063C10.016,31.436,9.1,33.285,10.542,33.778Zm.19-12.652A40.433,40.433,0,0,0,21.61,22.344a46.442,46.442,0,0,0,10.831-1.321c1.575-.409.711-2.418,0-2.54a45.609,45.609,0,0,0-21.709.1c-.775.19-.711,2.415,0,2.54Z" transform="translate(0 -3.617)"/>
</svg>
