<svg xmlns="http://www.w3.org/2000/svg" width="28.863" height="54.325" viewBox="0 0 28.863 54.325">
  <path id="facebook" d="M7.76,31.547h5.7V52.625a1.7,1.7,0,0,0,1.7,1.7l9.07,0a1.7,1.7,0,0,0,1.7-1.7V31.549h5.4a1.7,1.7,0,0,0,1.684-1.487l1.127-9.054A1.7,1.7,0,0,0,32.455,19.1h-6.53c.256-5.593-.985-7.248,2.653-7.248,2.463-.294,6.347.953,6.347-1.7v-8.1A1.7,1.7,0,0,0,33.458.376a60.947,60.947,0,0,0-7-.376c-15.867,0-12.6,17.592-12.993,19.1H7.76a1.7,1.7,0,0,0-1.7,1.7v9.054a1.7,1.7,0,0,0,1.7,1.7Zm1.7-9.052h5.7a1.7,1.7,0,0,0,1.7-1.7V13.665c0-6.526,3.5-10.267,9.6-10.267,1.987,0,3.816.1,5.075.2V8.459c-.91.464-9-2-9,6.1V20.8a1.7,1.7,0,0,0,1.7,1.7h6.306l-.706,5.659h-5.6a1.7,1.7,0,0,0-1.7,1.7V50.93h-5.67V29.852a1.7,1.7,0,0,0-1.7-1.7h-5.7Z" transform="translate(-6.062)"/>
</svg>
