<svg xmlns="http://www.w3.org/2000/svg" xmlns:xlink="http://www.w3.org/1999/xlink" width="1920" height="757" viewBox="0 0 1920 757">
  <defs>
    <clipPath id="clip-path">
      <rect id="Rectangle_280" data-name="Rectangle 280" width="217.443" height="214.647" fill="none"/>
    </clipPath>
    <clipPath id="clip-footer-bg">
      <rect width="1920" height="757"/>
    </clipPath>
  </defs>
  <g id="footer-bg" clip-path="url(#clip-footer-bg)">
    <rect width="1920" height="757" fill="#fff"/>
    <g id="Footer" transform="translate(0 -6727)">
      <path id="Path_1329" data-name="Path 1329" d="M0,91.926S809.236-219,1203.182,317.052c393.946,536.1,457.8,589.7,723.977,653.986,266.178,64.346,436.575,482.453,362.019,750.533" transform="matrix(0.819, -0.574, 0.574, 0.819, -585.166, 7787.517)" fill="#416f8a"/>
      <path id="Path_1325" data-name="Path 1325" d="M367.089-47.773S111.35-39.819,67.986,35.909-62.486,212.684-40.8,245.959,315.974,439.789,420.319,358.325,367.089-47.773,367.089-47.773Z" transform="matrix(-0.848, 0.53, -0.53, -0.848, 2096.945, 7382.635)" fill="#4e8a7d"/>
      <path id="Path_1326" data-name="Path 1326" d="M28.345,33.074s-.317,12.348-12.438,8.8C3.786,38.3,6.228,24.638,10.344,21.585c4.093-3.076,17.73,3.731,18,11.488" transform="translate(1827.027 7046.545)" fill="#3d3d3c"/>
      <path id="Path_1327" data-name="Path 1327" d="M14.756,36.285c-10.516-3.347-9-14.157-5.608-16.441,3.392-2.261,15.378,3.731,15.9,9.928" transform="translate(1848.753 7026.651)" fill="#3d3d3c"/>
      <g id="Group_400" data-name="Group 400" transform="translate(1740.729 6992.095) rotate(-104)" clip-path="url(#clip-path)">
        <path id="Path_1320" data-name="Path 1320" d="M93.893,214.459c-27.461-2.417-44.013-26.312-44.7-27.329a1.265,1.265,0,0,1,1.074-1.977c10.288.242,38.4-.251,44.889-5.4.951-.753,1.07-1.184,1.052-1.241,0-.018-.608-1.664-9.927-2.487a154.062,154.062,0,0,0-21.98-.053,128.8,128.8,0,0,1-20.074-.216c-2.549-.225-4.063-.44-4.063-.44a1.2,1.2,0,0,1-.55-.22c-.247-.167-24.6-17.644-31.41-50.022a1.263,1.263,0,0,1,1.946-1.307C10.489,124,45.627,147.6,67.6,147.642c11.912.013,18.547-3.487,18.943-6.947.317-2.734-3.482-5.428-9.676-6.867a48.039,48.039,0,0,0-6.731-1.07,81,81,0,0,0-13.686.233,73.6,73.6,0,0,1-12.344.247,36.577,36.577,0,0,1-11.261-2.809A99.885,99.885,0,0,1,5.924,113.142a1.24,1.24,0,0,1-.26-.357c-.4-.784-9.553-19.414-3.733-33.47a1.245,1.245,0,0,1,.885-.748,1.264,1.264,0,0,1,1.127.295c.264.238,26.079,23.556,35.865,25.911a99.752,99.752,0,0,0,13.325,2.448c2.861.255,7.739.339,8.228-1.911a4.879,4.879,0,0,0-.929-3.614c-1.959-2.923-7.316-6.625-16.482-8.254-10.592-1.88-29.411-7.189-36.4-21.668C1.337,58.9,9.437,41.98,10.779,39.347L8.79,8.228a1.245,1.245,0,0,1,.484-1.07,1.232,1.232,0,0,1,1.158-.216c.031.009,7.515,2.192,22.773-1.171,2-.445,3.852-.9,5.586-1.338,4.9-1.219,8.765-2.183,12.392-1.862,6.22.546,10.834,4.974,15.91,15.284A168.742,168.742,0,0,1,76.077,47.87c1.88,9.936.515,14.479-.3,17.2-.519,1.73-.665,2.32-.172,3.222a4.336,4.336,0,0,0,2.9,2.346c1.809.158,4.134-2.76,5.217-11.446,1.99-15.879-6.035-45.158-18.23-56.7A1.263,1.263,0,0,1,66.2.313,66.681,66.681,0,0,1,78.886.273c6.907.608,16.658,2.575,23.851,8.5.775.8,16.037,17.327,11.032,41.2a158.878,158.878,0,0,1-5.921,20.994c-2.342,6.8-3.315,9.614-1.162,13.321,1.2,2.078,2.522,3.284,3.711,3.385,2.584.229,5.512-4.358,7.827-12.265,3.28-11.182,9.368-39.884-4.952-64.792a1.27,1.27,0,0,1,.044-1.325,1.307,1.307,0,0,1,1.2-.563c.8.092,19.748,2.377,30.234,12.441a1.277,1.277,0,0,1,.3.449,86.4,86.4,0,0,1,4.319,38.744c-1.673,13.105-5.762,21.7-8.756,27.98-1.682,3.535-3.016,6.33-3.209,8.567a7.151,7.151,0,0,0,1.475,5.269,4.839,4.839,0,0,0,6.458,1.013c3.878-2.562,7.572-17.34,9.773-26.167l.559-2.219c2.575-10.231,1.823-25.22-2.386-47.17a1.264,1.264,0,0,1,.489-1.25,1.24,1.24,0,0,1,1.343-.1c1.14.6,27.945,14.941,31.753,36.213,3.478,19.418-7.3,42.842-9.456,47.271a3.646,3.646,0,0,0,2.377,1.215c1.994.176,4.5-1.259,7.259-4.151,8-8.413,12.405-28.614,12.449-28.821a1.272,1.272,0,0,1,.916-.955,1.247,1.247,0,0,1,1.268.392c.665.748,16.169,18.613,15.756,37.274-.211,9.5-5.481,33.43-20.426,46.817-13.832,12.392-32.127,12.036-53.218-1.285,1.431,5.881,3.359,18.538-2.373,30.494-4.578,9.553-13.07,16.544-25.251,20.783a53.32,53.32,0,0,1-22.271,2.932M52.807,187.719c4.644,5.811,19.629,22.31,41.31,24.217a50.674,50.674,0,0,0,21.219-2.8c11.516-4.01,19.519-10.565,23.8-19.484,7.184-15,1.373-31.731,1.312-31.9a1.267,1.267,0,0,1,.418-1.422,1.242,1.242,0,0,1,1.484-.044c21.241,14.4,39.382,15.544,52.972,3.368,14.188-12.709,19.387-36.217,19.585-44.986.313-14.25-9.592-28.5-13.537-33.6-1.484,5.868-5.674,20.334-12.493,27.5-3.35,3.522-6.484,5.181-9.311,4.93a6.327,6.327,0,0,1-4.741-2.985,1.284,1.284,0,0,1-.022-1.193c.136-.26,13.193-26.145,9.575-46.382-2.954-16.517-21.492-29.068-28.1-33.069,3.883,21.117,4.442,35.24,1.845,45.554l-.555,2.21c-3.354,13.436-6.489,24.793-10.834,27.668a7.414,7.414,0,0,1-9.795-1.506,9.605,9.605,0,0,1-2.051-7.114c.233-2.685,1.651-5.661,3.447-9.43,2.914-6.123,6.907-14.505,8.527-27.214A85.719,85.719,0,0,0,142.788,22.8c-7.735-7.255-20.668-10.209-26.07-11.168,13.189,25.194,7.211,53.333,3.936,64.488C117.11,88.2,113,90.439,110.177,90.189c-2.1-.18-4.006-1.743-5.683-4.631-2.725-4.706-1.413-8.509.964-15.417A156.38,156.38,0,0,0,111.3,49.455c4.724-22.548-10.125-38.678-10.279-38.836C94.439,5.213,85.216,3.373,78.661,2.8a69.791,69.791,0,0,0-9.526-.176C81.056,15.958,88.2,43.776,86.233,59.5c-1.475,11.736-5.137,13.9-7.95,13.651-2.263-.2-4.059-2.1-4.9-3.658-1.013-1.871-.555-3.4-.026-5.159.8-2.655,2-6.669.238-15.989a166.382,166.382,0,0,0-8.8-29.438C59.094,7.343,54.771,5.424,50.958,5.089c-3.2-.282-6.889.638-11.556,1.8-1.752.436-3.627.907-5.652,1.347C21.811,10.874,14.534,10.28,11.418,9.743l1.906,29.794a1.238,1.238,0,0,1-.145.674c-.092.176-9.4,17.93-3.35,30.463,6.5,13.466,24.445,18.485,34.562,20.281,8.448,1.5,15.227,4.988,18.142,9.333a7.172,7.172,0,0,1,1.3,5.56c-1.03,4.754-8.435,4.116-10.9,3.9h-.018a101.725,101.725,0,0,1-13.7-2.514C30.065,105.028,9.287,87,3.648,81.992c-3.773,12.062,3.258,27.531,4.178,29.464A99.507,99.507,0,0,0,33.838,128.1a34.283,34.283,0,0,0,10.495,2.615,72.132,72.132,0,0,0,11.926-.251,82.96,82.96,0,0,1,14.1-.233,50.656,50.656,0,0,1,7.088,1.131c7.757,1.8,12.1,5.4,11.613,9.614-.528,4.592-7.369,9.205-21.461,9.187-19.264.013-47.473-16.993-56.216-22.575a85.714,85.714,0,0,0,29.446,45.259c.555.075,1.818.229,3.623.387a126.415,126.415,0,0,0,19.665.211,156.533,156.533,0,0,1,22.385.057c9.874.872,11.67,2.743,12.128,4.279.392,1.307-.247,2.637-1.9,3.949-7.308,5.807-35.165,6.053-43.921,5.983" transform="translate(0.002 -0.001)" fill="#416f8a"/>
        <path id="Path_1321" data-name="Path 1321" d="M20.028,37.062a1.264,1.264,0,1,1,.22-2.518c3.79.335,10.279-3.222,10.455-5.212.009-.11.026-.418-.726-.832a12.317,12.317,0,0,0-4.719-1.083,1.264,1.264,0,1,1,.225-2.518A14.67,14.67,0,0,1,31.2,26.29a3.326,3.326,0,0,1,2.021,3.266c-.343,3.9-8.4,7.928-13.193,7.506" transform="translate(64.213 84.693)" fill="#416f8a"/>
        <path id="Path_1322" data-name="Path 1322" d="M37.412,45.4c-3.253-.291-4.451-3.517-4.649-5.375a1.248,1.248,0,0,1,.11-.669c.132-.291,3.341-7.1,8.413-11.446a4.892,4.892,0,0,1,3.619-1.3c1.972.172,3.627,1.721,4.327,4.041.929,3.108.163,7.832-4.79,11.763-2.751,2.183-5.049,3.156-7.03,2.985m-2.078-5.318c.154.77.709,2.659,2.3,2.8.889.079,2.514-.282,5.239-2.443,3.962-3.148,4.627-6.74,3.936-9.055-.625-2.069-2.307-2.888-3.874-1.545-4.046,3.465-6.9,8.844-7.6,10.248" transform="translate(111.44 90.496)" fill="#416f8a"/>
        <path id="Path_1323" data-name="Path 1323" d="M26.449,48.594h0a3.862,3.862,0,0,1-3.443-2.773c-.77-2.456.414-5.52,2.949-7.638,3.949-3.3,8.848-5.507,11.648-5.261a2.687,2.687,0,0,1,2.487,1.646c.713,1.814-.625,4.49-4.2,8.426-4.468,4.922-7.6,5.763-9.443,5.6M37.38,35.441c-1.818-.158-6.084,1.585-9.8,4.684-1.928,1.611-2.544,3.7-2.161,4.939a1.342,1.342,0,0,0,1.255,1.013c.656.057,3.112-.119,7.352-4.781,4.037-4.446,3.72-5.793,3.715-5.807.009.026-.119-.026-.357-.048" transform="translate(77.483 111.945)" fill="#416f8a"/>
        <path id="Path_1324" data-name="Path 1324" d="M96.013,105.549l-.5-.819C86.628,90.141,76.564,73.6,49.812,58.749,22.2,43.412,9.6,11.782,9.479,11.461l2.36-.916c.119.3,12.4,31.11,39.2,45.99,27.333,15.183,37.586,32.022,46.633,46.884l.5.814Z" transform="translate(32.25 35.875)" fill="#416f8a"/>
      </g>
      <path id="Path_1328" data-name="Path 1328" d="M64.606,17.989S64.071-4.9,41.459,1.77,23.34,33.794,30.951,39.444s33.12-7.05,33.656-21.455" transform="translate(1828.8 7092.945)" fill="#fecb9d"/>
      <path id="Path_1330" data-name="Path 1330" d="M367.089-47.773S111.35-39.819,67.986,35.909-62.486,212.684-40.8,245.959,315.974,439.789,420.319,358.325,367.089-47.773,367.089-47.773Z" transform="translate(-182.664 7526.293) rotate(-97)" fill="#d2edfd"/>
      <path id="Path_1331" data-name="Path 1331" d="M28.345,33.074s-.317,12.348-12.438,8.8C3.786,38.3,6.228,24.638,10.344,21.585c4.093-3.076,17.73,3.731,18,11.488" transform="translate(61.744 7091.246)" fill="#3d3d3c"/>
      <path id="Path_1332" data-name="Path 1332" d="M14.756,36.285c-10.516-3.347-9-14.157-5.608-16.441,3.392-2.261,15.378,3.731,15.9,9.928" transform="translate(65.044 7074.14)" fill="#3d3d3c"/>
      <path id="Path_1335" data-name="Path 1335" d="M42,8.1s-.232-9.906-10.016-7.018-7.84,13.857-4.547,16.3S41.768,14.33,42,8.1" transform="translate(43.967 6825.605)" fill="#fecb9d"/>
      <path id="Path_1336" data-name="Path 1336" d="M42,8.1s-.232-9.906-10.016-7.018-7.84,13.857-4.547,16.3S41.768,14.33,42,8.1" transform="translate(12.723 6903.126)" fill="#fecb9d"/>
      <path id="Path_1337" data-name="Path 1337" d="M42,8.1s-.232-9.906-10.016-7.018-7.84,13.857-4.547,16.3S41.768,14.33,42,8.1" transform="translate(21.345 6851.738)" fill="#fecb9d"/>
      <path id="Path_1338" data-name="Path 1338" d="M42,8.1s-.232-9.906-10.016-7.018-7.84,13.857-4.547,16.3S41.768,14.33,42,8.1" transform="translate(46.907 6892.527)" fill="#fecb9d"/>
      <path id="Path_1339" data-name="Path 1339" d="M42,8.1s-.232-9.906-10.016-7.018-7.84,13.857-4.547,16.3S41.768,14.33,42,8.1" transform="translate(-4.52 6873.455)" fill="#fecb9d"/>
      <path id="Path_1340" data-name="Path 1340" d="M42,8.1s-.232-9.906-10.016-7.018-7.84,13.857-4.547,16.3S41.768,14.33,42,8.1" transform="translate(43.967 6873.455)" fill="#fecb9d"/>
      <path id="Path_1341" data-name="Path 1341" d="M42,8.1s-.232-9.906-10.016-7.018-7.84,13.857-4.547,16.3S41.768,14.33,42,8.1" transform="translate(35.345 6802.027)" fill="#fecb9d"/>
      <path id="Path_1342" data-name="Path 1342" d="M42,8.1s-.232-9.906-10.016-7.018-7.84,13.857-4.547,16.3S41.768,14.33,42,8.1" transform="translate(12.723 6825.605)" fill="#fecb9d"/>
      <path id="Path_1343" data-name="Path 1343" d="M42,8.1s-.232-9.906-10.016-7.018-7.84,13.857-4.547,16.3S41.768,14.33,42,8.1" transform="translate(21.345 6875.316)" fill="#fecb9d"/>
      <path id="Path_1344" data-name="Path 1344" d="M42,8.1s-.232-9.906-10.016-7.018-7.84,13.857-4.547,16.3S41.768,14.33,42,8.1" transform="translate(52.589 6854.383)" fill="#fecb9d"/>
      <g id="Copyright" transform="translate(-2 940)">
        <rect id="Rectangle_266" data-name="Rectangle 266" width="1978" height="158" transform="translate(-27 6557)" fill="#fecb9d"/>
      </g>
    </g>
  </g>
</svg>
