<svg xmlns="http://www.w3.org/2000/svg" width="651.502" height="628.804" viewBox="0 0 651.502 628.804">
  <g id="Group_489" data-name="Group 489" transform="translate(-1508.255 -7036)">
    <path id="Path_1325" data-name="Path 1325" d="M367.089-47.773S111.35-39.819,67.986,35.909-62.486,212.684-40.8,245.959,315.974,439.789,420.319,358.325,367.089-47.773,367.089-47.773Z" transform="matrix(-0.848, 0.53, -0.53, -0.848, 2096.945, 7382.635)" fill="#4e8a7d"/>
    <path id="Path_1326" data-name="Path 1326" d="M28.345,33.074s-.317,12.348-12.438,8.8C3.786,38.3,6.228,24.638,10.344,21.585c4.093-3.076,17.73,3.731,18,11.488" transform="translate(1827.027 7046.545)" fill="#3d3d3c"/>
    <path id="Path_1327" data-name="Path 1327" d="M14.756,36.285c-10.516-3.347-9-14.157-5.608-16.441,3.392-2.261,15.378,3.731,15.9,9.928" transform="translate(1848.753 7026.651)" fill="#3d3d3c"/>
    <path id="Path_1328" data-name="Path 1328" d="M64.606,17.989S64.071-4.9,41.459,1.77,23.34,33.794,30.951,39.444s33.12-7.05,33.656-21.455" transform="translate(1828.8 7092.945)" fill="#fecb9d"/>
  </g>
</svg>
