<svg xmlns="http://www.w3.org/2000/svg" width="30.589" height="27.615" viewBox="0 0 30.589 27.615">
  <g id="heart" transform="translate(-5.069 -12.111)">
    <g id="Group_412" data-name="Group 412" transform="translate(5.069 12.111)">
      <path id="Path_1365" data-name="Path 1365" d="M19.882,33.5a4.614,4.614,0,0,1-1.418-.2C13.093,31.478,4.6,24.972,4.6,15.266A9.361,9.361,0,0,1,13.926,5.89,9.206,9.206,0,0,1,19.9,8.061a9.313,9.313,0,0,1,15.29,7.2c0,9.721-8.513,16.217-13.877,18.033l-.012,0a4.626,4.626,0,0,1-1.418.2Zm.833-1.975h.025ZM13.926,9.62a5.627,5.627,0,0,0-5.6,5.645c0,8.694,8.383,13.5,11.318,14.5a1.655,1.655,0,0,0,.492-.01c2.959-1.01,11.318-5.8,11.318-14.489a5.583,5.583,0,0,0-10.065-3.392,1.865,1.865,0,0,1-3,0A5.531,5.531,0,0,0,13.926,9.62Z" transform="translate(-4.6 -5.89)" fill="#fff"/>
    </g>
  </g>
</svg>
