<svg xmlns="http://www.w3.org/2000/svg" width="28.459" height="25.299" viewBox="0 0 28.459 25.299">
  <path id="house-solid" d="M28.452,12.625a1.6,1.6,0,0,1-1.581,1.586H25.29l.035,7.916a3.625,3.625,0,0,1-.025.4v.8A1.976,1.976,0,0,1,23.323,25.3h-.791c-.054,0-.109,0-.163,0s-.138,0-.208,0H19.37a1.976,1.976,0,0,1-1.977-1.977V18.975a1.58,1.58,0,0,0-1.581-1.581H12.65a1.58,1.58,0,0,0-1.581,1.581v4.348A1.976,1.976,0,0,1,9.092,25.3H6.33c-.074,0-.148,0-.222-.01s-.119.01-.178.01H5.139a1.976,1.976,0,0,1-1.977-1.977V17.789a1.3,1.3,0,0,1,0-.138V14.211H1.581A1.562,1.562,0,0,1,0,12.625a1.606,1.606,0,0,1,.494-1.186L13.164.4A1.426,1.426,0,0,1,14.251,0a1.641,1.641,0,0,1,1.038.346l12.62,11.093A1.354,1.354,0,0,1,28.452,12.625Z" fill="#416f8a"/>
</svg>
