<svg id="instagram" xmlns="http://www.w3.org/2000/svg" width="54.325" height="54.325" viewBox="0 0 54.325 54.325">
  <path id="Path_1303" data-name="Path 1303" d="M10.752,54.325H43.573A10.765,10.765,0,0,0,54.325,43.573V10.752A10.765,10.765,0,0,0,43.573,0H10.752A10.765,10.765,0,0,0,0,10.752V43.573A10.765,10.765,0,0,0,10.752,54.325ZM3.4,10.752A7.365,7.365,0,0,1,10.752,3.4H43.573a7.365,7.365,0,0,1,7.357,7.357V43.573a7.365,7.365,0,0,1-7.357,7.357H10.752A7.365,7.365,0,0,1,3.4,43.573Z"/>
  <path id="Path_1304" data-name="Path 1304" d="M19.746,33.621A13.876,13.876,0,1,0,5.87,19.746,13.892,13.892,0,0,0,19.746,33.621Zm0-24.356a10.48,10.48,0,1,1-10.48,10.48,10.492,10.492,0,0,1,10.48-10.48Z" transform="translate(7.417 7.417)"/>
  <path id="Path_1305" data-name="Path 1305" d="M20.541,11.711a3.819,3.819,0,0,0,3.914-3.9,3.913,3.913,0,0,0-7.825,0,3.811,3.811,0,0,0,3.911,3.9Zm.4-4.269c.715.632-.917,1.4-.917.376C20.025,7.207,20.856,7.365,20.942,7.442Z" transform="translate(21.013 4.953)"/>
</svg>
