<svg xmlns="http://www.w3.org/2000/svg" width="54.308" height="54.325" viewBox="0 0 54.308 54.325">
  <g id="linkedin" transform="translate(-0.031)">
    <path id="Path_1308" data-name="Path 1308" d="M32.086,45.353l10.548,0a1.7,1.7,0,0,0,1.7-1.7C43.539,25.868,48.5,7.1,29.985,7.1a13.468,13.468,0,0,0-8.441,2.823c0-3.307-3.574-1.478-11.825-1.969a1.7,1.7,0,0,0-1.7,1.7c.684,32.065-1.526,35.7,1.7,35.7H20.268c3.063,0,1.114-4.319,1.7-18.534,0-5.872,1.7-7.022,4.631-7.022,3.246,0,3.791,2.254,3.791,7.307C30.97,41.061,29.034,45.353,32.086,45.353ZM26.6,16.4c-10.166,0-8.027,11.177-8.027,25.555H11.417V11.35h6.732v2.938a1.8,1.8,0,0,0,3.348.792A9.433,9.433,0,0,1,29.985,10.5c7.984,0,10.951,3.923,10.951,14.478V41.957H33.783c0-16.171,1.711-25.558-7.187-25.558Z" transform="translate(9.955 8.972)"/>
    <path id="Path_1309" data-name="Path 1309" d="M2.13,7.515c-3.214,0-1.014,3.588-1.7,35.7a1.7,1.7,0,0,0,1.7,1.7H12.69c3.214,0,1.014-3.588,1.7-35.7,0-2.931-4.258-1.2-12.257-1.7Zm8.862,34H3.828V10.91h7.164Z" transform="translate(0.371 9.414)"/>
    <path id="Path_1310" data-name="Path 1310" d="M7.775,0c-10.358,0-10.295,15.684,0,15.684S18.145,0,7.775,0Zm0,12.289c-5.813,0-5.867-8.893,0-8.893S13.579,12.289,7.775,12.289Z" transform="translate(0)"/>
  </g>
</svg>
