<svg xmlns="http://www.w3.org/2000/svg" xmlns:xlink="http://www.w3.org/1999/xlink" width="117.996" height="93.35" viewBox="0 0 117.996 93.35">
  <defs>
    <clipPath id="clip-path">
      <rect id="Rectangle_263" data-name="Rectangle 263" width="117.996" height="93.35" fill="none"/>
    </clipPath>
  </defs>
  <g id="message-box" transform="translate(0 0)">
    <g id="Group_359" data-name="Group 359" transform="translate(0 0)" clip-path="url(#clip-path)">
      <path id="Path_1271" data-name="Path 1271" d="M105.389,88.925c-.528,4.795-.522,4.767-6.027,4.124q-39.726-4.66-78.876-12.944c-5.731-1.221-11.4-2.837-17.182-3.662C-.521,75.9-.257,73.969.363,71.225Q4.516,52.956,8.577,34.659C10.9,24.3,13.279,13.946,15.5,3.564,16.069.9,16.845-.252,19.963.045,38,1.772,55.981,3.971,73.944,6.336c13.859,1.82,27.674,4,41.538,5.768,2.65.341,2.7,1.606,2.381,3.508q-3.248,19.292-6.528,38.573c-1.4,8.286-2.747,16.578-4.12,24.865" transform="translate(-0.002 -0.004)" fill="#45b6d2"/>
      <path id="Path_1272" data-name="Path 1272" d="M66.056,40.6c-.215-.06-.571-.071-.6-.192-1.751-5.125-4.11-2.15-6.426-.544-3.555,2.469-7.061,4.762-9.221,8.957-1.729,3.36-5.332,5.07-8.672,6.763-1.551.786-2.661.335-3.749-.858-1.567-1.743-3.1-3.69-3.442-5.944-.98-6.521-4.955-11.261-8.882-15.9C21.3,28.446,18.668,23.255,15.108,18.7,11.322,13.863,7.9,8.728,4.33,3.7,3.916,3.119,3.258,2.547,4.083.848c9.291,12.944,18.345,25.558,27.534,38.369,1.12-1.936,1.271-4.624,3.9-4.443,3.641.247,3.544,3.97,5.133,6.395,1.573-1.54,3-3.156,5.015-3.975,3.393-1.375,6.049-.418,6.571,2.9.442,2.832,1.47,1.655,2.65.819Q69.711,30.378,84.52,19.824c2.914-2.067,5.909-4.025,9.124-6.208.426,2.018-.916,2.359-1.788,2.969C84.095,22.078,76.419,27.7,68.518,32.965c-3.1,2.073-4.955,3.965-2.5,7.649Z" transform="translate(16.175 3.813)" fill="#fff"/>
      <path id="Path_1273" data-name="Path 1273" d="M19.164,17.19c-1.045.847-.167,2.293-1.282,4.091.172-3.855.108-6.851-1.293-9.59-.329-.7.027-.781.587-.671,2.149,1.089,1.228,3.514,2.138,5.141a.685.685,0,0,1-.151,1.028" transform="translate(72.213 49.391)" fill="#f7fcfd"/>
      <path id="Path_1274" data-name="Path 1274" d="M4.019,12.09A5.2,5.2,0,0,1,6.825,9.005c-.469,4.157-1.061,4.971-2.747,3.954a.566.566,0,0,1-.059-.869" transform="translate(16.858 40.508)" fill="#def1f6"/>
      <path id="Path_1275" data-name="Path 1275" d="M7.012,9.566c.022.291.043.577.059.869a19.463,19.463,0,0,0-1.734,3.717c-.566,2.463-1.384.786-2.176.28l.032.033c.377-2.359,2.386-3.393,3.819-4.9" transform="translate(13.865 43.032)" fill="#eff8fb"/>
      <path id="Path_1276" data-name="Path 1276" d="M5.968,12.038c-.135,1.826-2.321,2.188-2.65,3.877-.733.341-1.093-.082-1.363-.687.232-1.974,1.885-2.859,3.027-4.146.808-.192,1.11.154.986.957" transform="translate(8.575 49.615)" fill="#e2f2f8"/>
      <path id="Path_1277" data-name="Path 1277" d="M4.736,12.65c.415-2.122,2.321-2.694,2.688-4.426.151-.726,1.126-.28,1.54.2.334.39.555,1.138-.194,1.265-1.74.3-2.165,2.309-4.034,2.964" transform="translate(20.773 35.273)" fill="#e6f4f9"/>
      <path id="Path_1278" data-name="Path 1278" d="M3.5,14.636l-.986-.957c1.056-1.188,1.519-3.057,3.5-3.2l-.032-.027c-.625,1.518-.571,3.459-2.483,4.184" transform="translate(11.04 47.017)" fill="#e3f3f8"/>
      <path id="Path_1279" data-name="Path 1279" d="M18.3,13.752q1.309,2.689,2.618,5.383c-.291.154-.576.308-.862.462q-1.163-2.59-2.321-5.185a1.011,1.011,0,0,1,.566-.66" transform="translate(77.803 61.863)" fill="#e5f4f8"/>
      <path id="Path_1280" data-name="Path 1280" d="M8.2,7.211c.011,1.936-.8,2.782-2.553,2.9.065-1.622.56-2.738,2.553-2.9" transform="translate(24.756 32.437)" fill="#e1f2f7"/>
      <path id="Path_1281" data-name="Path 1281" d="M16.965,12.95c.048-.341.1-.687.151-1.028.926.99,2.634,1.562,1.8,3.5-.388.385.011,1.441-1.034,1.259-.307-1.243-.609-2.485-.916-3.728" transform="translate(74.412 53.63)" fill="#eaf6fa"/>
      <path id="Path_1282" data-name="Path 1282" d="M17.213,13.816c.345-.418.689-.841,1.034-1.259.329.869.663,1.732.991,2.6a.6.6,0,0,1-.889.044c-1.045.643-.393,1.76-.7,2.606q-.234.528-.533.033l.1-4.019" transform="translate(75.074 56.487)" fill="#f2f9fc"/>
      <path id="Path_1283" data-name="Path 1283" d="M16.752,12.788c-.743-1.479-2.09-2.788-1.282-4.712l-.038.016a13.115,13.115,0,0,1,1.9,4.041,1.017,1.017,0,0,1-.576.654" transform="translate(66.761 36.329)" fill="#dff1f6"/>
      <path id="Path_1284" data-name="Path 1284" d="M16.436,9.468c.544,1.144,1.093,2.282,1.637,3.426a.992.992,0,0,1-.56.654c-.619-1.347-1.244-2.694-1.864-4.041.248-.346.506-.357.786-.038" transform="translate(68.644 41.552)" fill="#e5f4f8"/>
      <path id="Path_1285" data-name="Path 1285" d="M18.6,13.968,18,14.633q-.929-2.021-1.864-4.041c.253-.341.517-.357.8-.038.544,1.138,1.1,2.276,1.659,3.415" transform="translate(70.793 46.443)" fill="#e4f3f8"/>
      <path id="Path_1286" data-name="Path 1286" d="M.966,16.118a5.782,5.782,0,0,1,3.28-3.888C3.573,14.012,2.6,14.809.966,16.118" transform="translate(4.237 55.016)" fill="#eff8fb"/>
      <path id="Path_1287" data-name="Path 1287" d="M2.691,11.793c.452.231.91.456,1.363.687-.075,1.292-.684,1.43-1.664.8-1.2-.775-.339-1.105.3-1.49" transform="translate(7.839 53.05)" fill="#92d1e2"/>
      <path id="Path_1288" data-name="Path 1288" d="M17.345,13.073c.3-.016.592-.027.889-.044.345.687.684,1.375,1.029,2.062a1.116,1.116,0,0,1-.6.671,4.831,4.831,0,0,1-1.314-2.689" transform="translate(76.079 58.61)" fill="#d6edf3"/>
      <path id="Path_1289" data-name="Path 1289" d="M6.347,7.939c1.4-.016,1.864.775,2.365,1.892-1.309-.1-1.794-.863-2.365-1.892" transform="translate(27.839 35.712)" fill="#cee9f1"/>
      <path id="Path_1290" data-name="Path 1290" d="M17.563,12.458c-.264.011-.528.022-.792.038-.259-.649-.517-1.292-.776-1.936.183-.22.372-.44.56-.66.334.852.673,1.7,1.007,2.557" transform="translate(70.162 44.539)" fill="#fff"/>
      <path id="Path_1291" data-name="Path 1291" d="M17.072,11.371c-.264.011-.522.027-.786.038-.259-.649-.522-1.292-.781-1.941.194-.214.388-.434.582-.654l.986,2.557" transform="translate(68.008 39.649)" fill="#fff"/>
      <path id="Path_1292" data-name="Path 1292" d="M17.589,14.075,18.2,13.4l.759,1.914-.566.66c-.269-.632-.533-1.27-.8-1.9" transform="translate(77.149 60.297)" fill="#fff"/>
      <path id="Path_1293" data-name="Path 1293" d="M17.388,13.545a4.339,4.339,0,0,0,.533-.033c.016.61.355,1.3-.355,1.738-.108.066-.517-.137-.512-.165.086-.517.215-1.028.334-1.54" transform="translate(74.802 60.783)" fill="#bee3ed"/>
      <path id="Path_1294" data-name="Path 1294" d="M10.329,11.443c1.007-.863,1.567-1.518,2.839-1-.819.792-1.406,1.463-2.839,1" transform="translate(45.305 46.148)" fill="#5abdd5"/>
      <path id="Path_1295" data-name="Path 1295" d="M12.213,12.939c.075-1.38.151-2.766.264-4.883a8.4,8.4,0,0,1,.415,4.872.392.392,0,0,1-.679.011" transform="translate(53.569 36.239)" fill="#4bb8d2"/>
      <path id="Path_1296" data-name="Path 1296" d="M12.785,8.953c.226-.006.452-.006.679-.011-.215.753-.221,1.65-1.309,1.914a1.79,1.79,0,0,1,.63-1.9" transform="translate(52.997 40.224)" fill="#6ec3d9"/>
    </g>
  </g>
</svg>
