<svg id="pinterest" xmlns="http://www.w3.org/2000/svg" width="54.325" height="54.325" viewBox="0 0 54.325 54.325">
  <g id="Group_486" data-name="Group 486">
    <g id="Group_362" data-name="Group 362">
      <g id="Group_361" data-name="Group 361">
        <path id="Path_1306" data-name="Path 1306" d="M40,0H14.321A14.171,14.171,0,0,0,0,14.324V40A14.17,14.17,0,0,0,14.321,54.325H40A14.172,14.172,0,0,0,54.325,40V14.324A14.174,14.174,0,0,0,40,0ZM50.82,40A10.582,10.582,0,0,1,40,50.819H14.321A10.578,10.578,0,0,1,3.5,40V14.324A10.58,10.58,0,0,1,14.321,3.5H40A10.582,10.582,0,0,1,50.82,14.324Z"/>
      </g>
    </g>
  </g>
  <g id="Group_364" data-name="Group 364" transform="translate(14.323 11.114)">
    <g id="Group_363" data-name="Group 363">
      <path id="Path_1307" data-name="Path 1307" d="M144.383,101.472c-9.051,0-13.615,6.281-13.615,11.517,0,3.172,1.241,5.992,3.9,7.045a.9.9,0,0,0,.326.067.638.638,0,0,0,.629-.529c.089-.322.3-1.137.391-1.481a.874.874,0,0,0-.273-1.025,5.21,5.21,0,0,1-1.26-3.614c0-4.661,3.606-8.83,9.382-8.83,5.115,0,7.926,3.025,7.926,7.064,0,5.315-2.431,9.8-6.039,9.8a2.881,2.881,0,0,1-3.007-3.552c.573-2.336,1.684-4.856,1.684-6.54a2.5,2.5,0,0,0-2.571-2.767c-2.04,0-3.677,2.038-3.677,4.772a6.913,6.913,0,0,0,.608,2.918s-2.082,8.548-2.448,10.047a19.994,19.994,0,0,0-.058,7,.237.237,0,0,0,.245.2.258.258,0,0,0,.207-.1,19.45,19.45,0,0,0,3.44-6.034c.237-.82,1.341-5.066,1.341-5.066a5.516,5.516,0,0,0,4.656,2.3c6.123,0,10.278-5.4,10.278-12.631C156.446,106.566,151.66,101.472,144.383,101.472Z" transform="translate(-130.768 -101.472)"/>
    </g>
  </g>
</svg>
