<svg xmlns="http://www.w3.org/2000/svg" xmlns:xlink="http://www.w3.org/1999/xlink" width="236.121" height="270.155" viewBox="0 0 236.121 270.155">
  <defs>
    <clipPath id="clip-path">
      <rect id="Rectangle_198" data-name="Rectangle 198" width="222.88" height="258.845" fill="none"/>
    </clipPath>
    <clipPath id="clip-path-2">
      <rect id="Rectangle_193" data-name="Rectangle 193" width="222.881" height="258.847" fill="none"/>
    </clipPath>
    <clipPath id="clip-path-3">
      <rect id="Rectangle_192" data-name="Rectangle 192" width="222.216" height="258.181" fill="none"/>
    </clipPath>
    <clipPath id="clip-path-4">
      <path id="Path_269" data-name="Path 269" d="M62.948,6.068l-2.858,8.85a9.3,9.3,0,0,1-5.712,17.7l-2.863,8.854A9.3,9.3,0,0,1,45.8,59.18l-2.858,8.85a9.3,9.3,0,1,1-5.717,17.7l-2.858,8.854a9.3,9.3,0,1,1-5.712,17.7l-2.863,8.854a9.3,9.3,0,1,1-5.712,17.7L17.222,147.7A9.3,9.3,0,1,1,11.5,165.4l-2.858,8.854a9.3,9.3,0,0,1-5.712,17.709l-2.863,8.85a9.3,9.3,0,0,1,6,11.708l8.85,2.858A9.3,9.3,0,0,1,32.625,221.1l8.85,2.858a9.3,9.3,0,0,1,17.7,5.712l8.854,2.863a9.3,9.3,0,0,1,17.7,5.712l8.854,2.858a9.3,9.3,0,1,1,17.7,5.717l8.859,2.858a9.3,9.3,0,1,1,17.7,5.712l8.85,2.863a9.3,9.3,0,0,1,11.708-6l2.863-8.85a9.3,9.3,0,0,1,5.712-17.709l2.858-8.85a9.3,9.3,0,1,1,5.717-17.7l2.858-8.854a9.3,9.3,0,0,1,5.712-17.7L188,163.734a9.3,9.3,0,1,1,5.712-17.7l2.858-8.859a9.3,9.3,0,1,1,5.717-17.7l2.858-8.85a9.3,9.3,0,0,1,5.712-17.7l2.863-8.854a9.3,9.3,0,0,1,5.712-17.7l2.858-8.85a9.307,9.307,0,0,1-6-11.708l-8.85-2.863a9.3,9.3,0,0,1-17.7-5.712l-8.85-2.858a9.3,9.3,0,1,1-17.709-5.717l-8.85-2.858a9.3,9.3,0,1,1-17.7-5.712l-8.854-2.863a9.3,9.3,0,1,1-17.7-5.712l-8.854-2.858A9.3,9.3,0,1,1,83.51,2.93L74.661.072a9.308,9.308,0,0,1-11.713,6" transform="translate(-0.071 -0.072)" fill="none"/>
    </clipPath>
    <linearGradient id="linear-gradient" x1="0.145" y1="0.945" x2="0.16" y2="0.945" gradientUnits="objectBoundingBox">
      <stop offset="0" stop-color="#e8e8e8"/>
      <stop offset="1" stop-color="#fff"/>
    </linearGradient>
  </defs>
  <g id="regards" transform="translate(13.547) rotate(3)">
    <g id="Group_231" data-name="Group 231" clip-path="url(#clip-path)">
      <g id="Group_226" data-name="Group 226" transform="translate(0 -0.002)">
        <g id="Group_225" data-name="Group 225" clip-path="url(#clip-path-2)">
          <g id="Group_224" data-name="Group 224" transform="translate(0.332 0.334)" style="mix-blend-mode: multiply;isolation: isolate">
            <g id="Group_223" data-name="Group 223">
              <g id="Group_222" data-name="Group 222" clip-path="url(#clip-path-3)">
                <path id="Path_268" data-name="Path 268" d="M138.848,255.395l8.854,2.858a9.3,9.3,0,0,1,11.708-6l2.858-8.85a9.3,9.3,0,1,1,5.717-17.7l2.858-8.854a9.3,9.3,0,1,1,5.712-17.7l2.858-8.854a9.3,9.3,0,0,1,5.717-17.7l2.858-8.85a9.3,9.3,0,1,1,5.717-17.7l2.858-8.854a9.3,9.3,0,1,1,5.717-17.7l2.854-8.854a9.3,9.3,0,0,1,5.717-17.7l2.858-8.85a9.3,9.3,0,1,1,5.717-17.7l2.858-8.854a9.3,9.3,0,0,1-6-11.708l-8.85-2.858a9.3,9.3,0,0,1-17.7-5.717l-8.854-2.858a9.3,9.3,0,1,1-17.7-5.717l-8.854-2.858a9.3,9.3,0,1,1-17.7-5.717l-8.85-2.854a9.3,9.3,0,0,1-17.7-5.717l-8.854-2.858a9.3,9.3,0,1,1-17.7-5.717L74.656.071a9.3,9.3,0,0,1-11.708,6l-2.858,8.85a9.3,9.3,0,1,1-5.717,17.7l-2.858,8.854a9.3,9.3,0,1,1-5.717,17.7l-2.854,8.854a9.3,9.3,0,0,1-5.717,17.7l-2.858,8.85a9.3,9.3,0,0,1-5.717,17.7l-2.858,8.854a9.3,9.3,0,1,1-5.717,17.7L17.217,147.7a9.3,9.3,0,1,1-5.712,17.7l-2.858,8.85a9.3,9.3,0,0,1-5.717,17.7L.071,200.814a9.308,9.308,0,0,1,6,11.713l8.85,2.854a9.3,9.3,0,0,1,17.7,5.717l8.854,2.858a9.3,9.3,0,1,1,17.7,5.717l8.854,2.858a9.3,9.3,0,1,1,17.7,5.717l8.85,2.858a9.3,9.3,0,1,1,17.7,5.712l8.854,2.858a9.3,9.3,0,0,1,17.7,5.717" transform="translate(-0.073 -0.073)" fill="#628492"/>
              </g>
            </g>
          </g>
        </g>
      </g>
      <g id="Group_228" data-name="Group 228" transform="translate(0.33 0.335)">
        <g id="Group_227" data-name="Group 227" clip-path="url(#clip-path-4)">
          <rect id="Rectangle_194" data-name="Rectangle 194" width="313.969" height="290.793" transform="matrix(0.307, -0.952, 0.952, 0.307, -75.488, 233.809)" fill="url(#linear-gradient)"/>
        </g>
      </g>
      <g id="Group_230" data-name="Group 230" transform="translate(0 -0.002)">
        <g id="Group_229" data-name="Group 229" clip-path="url(#clip-path-2)">
          <path id="Path_270" data-name="Path 270" d="M138.848,255.395l8.854,2.858a9.3,9.3,0,0,1,11.708-6l2.858-8.85a9.3,9.3,0,1,1,5.717-17.7l2.858-8.854a9.3,9.3,0,1,1,5.712-17.7l2.858-8.854a9.3,9.3,0,0,1,5.717-17.7l2.858-8.85a9.3,9.3,0,1,1,5.717-17.7l2.858-8.854a9.3,9.3,0,1,1,5.717-17.7l2.854-8.854a9.3,9.3,0,0,1,5.717-17.7l2.858-8.85a9.3,9.3,0,1,1,5.717-17.7l2.858-8.854a9.3,9.3,0,0,1-6-11.708l-8.85-2.858a9.3,9.3,0,0,1-17.7-5.717l-8.854-2.858a9.3,9.3,0,1,1-17.7-5.717l-8.854-2.858a9.3,9.3,0,1,1-17.7-5.717l-8.85-2.854a9.3,9.3,0,0,1-17.7-5.717l-8.854-2.858a9.3,9.3,0,1,1-17.7-5.717L74.656.071a9.3,9.3,0,0,1-11.708,6l-2.858,8.85a9.3,9.3,0,1,1-5.717,17.7l-2.858,8.854a9.3,9.3,0,1,1-5.717,17.7l-2.854,8.854a9.3,9.3,0,0,1-5.717,17.7l-2.858,8.85a9.3,9.3,0,0,1-5.717,17.7l-2.858,8.854a9.3,9.3,0,1,1-5.717,17.7L17.217,147.7a9.3,9.3,0,1,1-5.712,17.7l-2.858,8.85a9.3,9.3,0,0,1-5.717,17.7L.071,200.814a9.308,9.308,0,0,1,6,11.713l8.85,2.854a9.3,9.3,0,0,1,17.7,5.717l8.854,2.858a9.3,9.3,0,1,1,17.7,5.717l8.854,2.858a9.3,9.3,0,1,1,17.7,5.717l8.85,2.858a9.3,9.3,0,1,1,17.7,5.712l8.854,2.858a9.3,9.3,0,0,1,17.7,5.717Z" transform="translate(0.259 0.261)" fill="none" stroke="#040405" stroke-miterlimit="10" stroke-width="0.113"/>
          <rect id="Rectangle_195" data-name="Rectangle 195" width="178.599" height="122.788" transform="matrix(0.307, -0.952, 0.952, 0.307, 25.578, 195.54)" fill="#ffc547"/>
          <rect id="Rectangle_196" data-name="Rectangle 196" width="178.599" height="122.788" transform="matrix(0.307, -0.952, 0.952, 0.307, 25.578, 195.54)" fill="none" stroke="#161615" stroke-miterlimit="10" stroke-width="0.284"/>
          <path id="Path_271" data-name="Path 271" d="M95.8,114.5c-1.71,3.8-1.7,3.774-6.149,1.757Q57.57,101.672,26.938,84.27c-4.481-2.556-8.808-5.419-13.437-7.66-3.063-1.483-2.329-3-1.078-5.085q8.324-13.881,16.584-27.808c4.694-7.883,9.435-15.742,14.051-23.672,1.185-2.031,2.138-2.77,4.676-1.678C62.4,24.665,76.9,31.34,91.33,38.144c11.141,5.252,22.147,10.779,33.3,15.989,2.133.995,1.841,2.05,1.069,3.523Q117.865,72.625,110,87.575c-3.365,6.428-6.7,12.87-10.049,19.307" transform="translate(41.373 65.167)" fill="#45b6d2"/>
          <path id="Path_272" data-name="Path 272" d="M61,68.235c-.158-.107-.455-.209-.455-.321-.107-4.685-2.872-2.882-5.238-2.189-3.639,1.064-7.186,2-10.109,4.866-2.343,2.287-5.819,2.719-9.068,3.2a2.493,2.493,0,0,1-2.91-1.72c-.86-1.855-1.631-3.872-1.315-5.815.906-5.619-1.167-10.588-3.235-15.459-1.98-4.667-2.807-9.64-4.587-14.343-1.892-5-3.4-10.146-5.057-15.241a1.87,1.87,0,0,1,.548-2.412c4.355,13.149,8.6,25.963,12.917,38.973,1.45-1.287,2.3-3.453,4.453-2.594,2.979,1.19,1.915,4.22,2.607,6.642,1.724-.837,3.346-1.78,5.257-1.906,3.207-.214,5.178,1.292,4.736,4.155-.372,2.449.8,1.762,2.008,1.394,10.146-3.1,20.293-6.219,30.444-9.3,2.993-.911,6.024-1.706,9.3-2.631C91.11,55.313,89.892,55.23,89,55.5c-7.962,2.408-15.891,4.945-23.913,7.135-3.151.86-5.21,1.91-4.123,5.605Z" transform="translate(68.555 68.597)" fill="#fff"/>
          <path id="Path_273" data-name="Path 273" d="M29.954,38.414c-1.1.414-.744,1.841-2.161,3.016,1.167-3.123,1.906-5.6,1.459-8.231-.088-.665.232-.632.669-.39,1.515,1.478.1,3.216.432,4.8a.583.583,0,0,1-.4.8" transform="translate(101.386 119.106)" fill="#f7fcfd"/>
          <path id="Path_274" data-name="Path 274" d="M16.553,28.707a4.533,4.533,0,0,1,3.17-1.775c-1.492,3.291-2.208,3.8-3.346,2.505a.479.479,0,0,1,.177-.73" transform="translate(59.38 98.244)" fill="#def1f6"/>
          <path id="Path_275" data-name="Path 275" d="M19.883,27.313c-.06.242-.121.488-.177.73a16.608,16.608,0,0,0-2.445,2.584c-1.129,1.868-1.371.27-1.9-.358l.014.033c.948-1.836,2.9-2.143,4.5-2.989" transform="translate(56.05 99.637)" fill="#eff8fb"/>
          <path id="Path_276" data-name="Path 276" d="M17.983,29.368c-.595,1.464-2.528,1.171-3.254,2.468-.7.079-.892-.363-.957-.934.716-1.557,2.343-1.841,3.639-2.584.725.056.888.423.572,1.05" transform="translate(50.239 103.303)" fill="#e2f2f8"/>
          <path id="Path_277" data-name="Path 277" d="M17.439,29.208c.911-1.631,2.659-1.585,3.426-2.91.321-.553,1.018.079,1.241.581.177.409.163,1.083-.5.99-1.534-.228-2.426,1.306-4.165,1.339" transform="translate(63.616 95.153)" fill="#e6f4f9"/>
          <path id="Path_278" data-name="Path 278" d="M15.127,30.749c-.191-.349-.381-.7-.572-1.05,1.2-.693,2.087-2.1,3.783-1.683l-.019-.033c-.93,1.078-1.4,2.687-3.193,2.766" transform="translate(53.095 101.923)" fill="#e3f3f8"/>
          <path id="Path_279" data-name="Path 279" d="M29.107,35.762l.767,5.131c-.284.046-.562.1-.846.144-.191-1.627-.381-3.258-.572-4.885a.888.888,0,0,1,.651-.39" transform="translate(103.805 130.459)" fill="#e5f4f8"/>
          <path id="Path_280" data-name="Path 280" d="M21.539,25.813c-.5,1.59-1.413,2.068-2.91,1.692.483-1.32,1.2-2.1,2.91-1.692" transform="translate(67.957 93.766)" fill="#e1f2f7"/>
          <path id="Path_281" data-name="Path 281" d="M28.433,34.521c.135-.27.265-.535.4-.8.516,1.064,1.794,2,.581,3.36-.428.209-.372,1.185-1.2.753Z" transform="translate(102.908 122.999)" fill="#eaf6fa"/>
          <path id="Path_282" data-name="Path 282" d="M29.112,35.192l1.2-.753c.051.8.1,1.6.144,2.4a.539.539,0,0,1-.758-.2c-1.041.246-.795,1.339-1.278,1.952-.223.242-.376.2-.455-.116.381-1.092.767-2.185,1.148-3.277" transform="translate(102.01 125.632)" fill="#f2f9fc"/>
          <path id="Path_283" data-name="Path 283" d="M28.2,33.655c-.228-1.418-1.013-2.858.172-4.216l-.033,0a11.144,11.144,0,0,1,.521,3.83.9.9,0,0,1-.66.381" transform="translate(101.177 107.393)" fill="#dff1f6"/>
          <path id="Path_284" data-name="Path 284" d="M28.535,31.016c.153,1.083.311,2.171.465,3.254a.848.848,0,0,1-.641.39c-.167-1.274-.33-2.552-.493-3.825q.446-.328.669.181" transform="translate(101.653 112.016)" fill="#e5f4f8"/>
          <path id="Path_285" data-name="Path 285" d="M29.164,35.481l-.669.39q-.251-1.917-.493-3.825c.3-.218.525-.158.674.181Z" transform="translate(102.149 116.434)" fill="#e4f3f8"/>
          <path id="Path_286" data-name="Path 286" d="M12.452,31.484a5.028,5.028,0,0,1,3.779-2.305c-1.036,1.278-2.059,1.673-3.779,2.305" transform="translate(45.424 106.444)" fill="#eff8fb"/>
          <path id="Path_287" data-name="Path 287" d="M14.542,28.874l.962.934c-.409,1.041-.957.99-1.608.209-.8-.962,0-1,.646-1.143" transform="translate(49.464 105.332)" fill="#92d1e2"/>
          <path id="Path_288" data-name="Path 288" d="M28.374,34.911c.251.07.5.139.758.2.107.66.209,1.315.316,1.971a.964.964,0,0,1-.688.386,4.134,4.134,0,0,1-.386-2.561" transform="translate(103.334 127.354)" fill="#d6edf3"/>
          <path id="Path_289" data-name="Path 289" d="M19.249,26.506c1.171.367,1.357,1.139,1.483,2.194-1.074-.432-1.278-1.195-1.483-2.194" transform="translate(70.219 96.693)" fill="#cee9f1"/>
          <path id="Path_290" data-name="Path 290" d="M28.784,33.844c-.223-.06-.451-.121-.674-.186l-.139-1.8c.214-.13.432-.26.646-.386l.167,2.37" transform="translate(102.036 114.816)" fill="#fff"/>
          <path id="Path_291" data-name="Path 291" d="M28.645,32.63l-.669-.181-.139-1.8c.218-.13.442-.256.66-.381.051.785.1,1.576.149,2.366" transform="translate(101.543 110.402)" fill="#fff"/>
          <path id="Path_292" data-name="Path 292" d="M28.42,35.765c.228-.13.455-.256.683-.386.046.595.088,1.185.135,1.78-.218.125-.432.256-.651.386l-.167-1.78" transform="translate(103.674 129.061)" fill="#fff"/>
          <path id="Path_293" data-name="Path 293" d="M28.5,35.306a3.846,3.846,0,0,0,.455.116c-.149.507-.046,1.167-.758,1.334-.107.023-.4-.256-.386-.279.209-.4.451-.785.688-1.171" transform="translate(101.47 128.795)" fill="#bee3ed"/>
          <path id="Path_294" data-name="Path 294" d="M22.323,30.607c1.074-.437,1.72-.823,2.645-.056-.892.432-1.566.823-2.645.056" transform="translate(81.432 109.851)" fill="#5abdd5"/>
          <path id="Path_295" data-name="Path 295" d="M24.634,32.416c.428-1.115.86-2.231,1.515-3.941a7.073,7.073,0,0,1-.944,4.113.348.348,0,0,1-.572-.172" transform="translate(89.863 103.876)" fill="#4bb8d2"/>
          <path id="Path_296" data-name="Path 296" d="M25.444,29.323c.191.056.381.116.572.172-.381.562-.623,1.3-1.6,1.218a1.533,1.533,0,0,1,1.032-1.39" transform="translate(89.053 106.97)" fill="#6ec3d9"/>
          <path id="Path_297" data-name="Path 297" d="M22.261,16.294a15.97,15.97,0,0,0,1.776-.112,6.468,6.468,0,0,0,1.627-.4,4.339,4.339,0,0,0,1.343-.841,3.447,3.447,0,0,0,.9-1.413,2.62,2.62,0,0,0-.265-1.813,2.8,2.8,0,0,0-1.2-1.046,5.58,5.58,0,0,0-1.748-.46,10.744,10.744,0,0,0-1.887-.037,12.367,12.367,0,0,0-1.622.209,4.037,4.037,0,0,0-.939.279.3.3,0,0,1-.311.009.382.382,0,0,1-.2-.228.4.4,0,0,1,.037-.3c.056-.1.186-.149.4-.163a16.89,16.89,0,0,1,4.155-.4,7.746,7.746,0,0,1,2.7.553,3.725,3.725,0,0,1,1.534,1.143,4.2,4.2,0,0,1,.688,1.366,3.785,3.785,0,0,1,.144,1.222,3.608,3.608,0,0,1-.1.73,7.478,7.478,0,0,1-.595,1.353,4.8,4.8,0,0,1-.874,1.111,4.974,4.974,0,0,1-1.241.841,6.663,6.663,0,0,1-1.7.53,7.864,7.864,0,0,1,.586.525c.149.158.3.339.451.539a1.834,1.834,0,0,1,.307.609c.609.1,1.171.181,1.687.26.456.07.9.135,1.339.191s.753.1.948.125a.678.678,0,0,1,.223.125.727.727,0,0,1,.172.191.236.236,0,0,1,.023.2c-.023.07-.093.121-.218.163-.688-.093-1.343-.163-1.961-.2s-1.181-.084-1.687-.116a6.864,6.864,0,0,1,.107.9c.009.256.009.511.009.772a6.377,6.377,0,0,1-.567,2.147,4.282,4.282,0,0,1-1.339,1.645,4.847,4.847,0,0,1-2.152.855,7.674,7.674,0,0,1-3.016-.232,4.747,4.747,0,0,1-1.655-.944,4.087,4.087,0,0,1-.957-1.26,3.8,3.8,0,0,1-.372-1.4,4.441,4.441,0,0,1,.116-1.353,3.668,3.668,0,0,1,.488-1.125,2.179,2.179,0,0,1,.776-.73c.149-.084.265-.153.344-.2a.511.511,0,0,0,.153-.135.145.145,0,0,0,.009-.139,1.263,1.263,0,0,0-.116-.209A29.813,29.813,0,0,1,20.109,15.9a20.214,20.214,0,0,1,2.138-3.407c.2-.414.381-.651.567-.711s.3-.042.349.056a6.042,6.042,0,0,0,.46,1,2.9,2.9,0,0,1,.349.967,1.229,1.229,0,0,1-.223.548,6.924,6.924,0,0,1-.521.734c-.2.246-.39.483-.576.716s-.316.4-.39.493M25.4,22.611a5.053,5.053,0,0,0,.223-.72c.037-.2.074-.409.1-.618a.947.947,0,0,0-.037-.5c-.163,0-.4-.009-.716-.028s-.66-.033-1.046-.051l-1.195-.056c-.418-.014-.8-.023-1.167-.028s-.665,0-.925.014a1.044,1.044,0,0,0-.493.112,3.993,3.993,0,0,0-1.729.586,2.283,2.283,0,0,0-.809.944,1.952,1.952,0,0,0-.112,1.106,3.912,3.912,0,0,0,.363,1.083,3.244,3.244,0,0,0,.632.865,1.631,1.631,0,0,0,.669.437,5.467,5.467,0,0,0,2.422.237,4.068,4.068,0,0,0,1.734-.693,5.076,5.076,0,0,0,1.227-1.255,13.654,13.654,0,0,0,.855-1.432m-4.9-2.8c.442.023.944.046,1.511.065s1.1.042,1.608.07l1.306.07a4.919,4.919,0,0,1,.6.046c-.242-.26-.488-.5-.734-.739a5.5,5.5,0,0,0-.781-.6,5.888,5.888,0,0,0-.688-.321c-.288-.121-.572-.223-.855-.316s-.525-.167-.734-.218-.316-.056-.33-.019a4.284,4.284,0,0,0-.437.939,5.493,5.493,0,0,1-.465,1.027" transform="translate(61.252 34.9)" fill="#161615"/>
          <path id="Path_298" data-name="Path 298" d="M19.415,17.946a5.577,5.577,0,0,1,.065-1.39A9.654,9.654,0,0,1,19.88,15a8.072,8.072,0,0,1,.7-1.492,4.806,4.806,0,0,1,1-1.195,3.084,3.084,0,0,1,1.292-.66,2.783,2.783,0,0,1,1.566.107c.167.07.363.149.576.232a2.172,2.172,0,0,1,.586.349,1.407,1.407,0,0,1,.4.567,1.471,1.471,0,0,1,.023.874,2.975,2.975,0,0,1-.8,1.357,3.379,3.379,0,0,1-1.1.693,2.855,2.855,0,0,1-1.1.191,1.756,1.756,0,0,1-.795-.163,6.264,6.264,0,0,0-.353,1.729,2.56,2.56,0,0,0,.135.967,1.028,1.028,0,0,0,.367.488,1.521,1.521,0,0,1,.358.316,1.217,1.217,0,0,0,.6.191,2.471,2.471,0,0,0,1.176-.218,6.714,6.714,0,0,0,1.673-1.064,13.384,13.384,0,0,0,2.115-2.356.887.887,0,0,1,.153.028.284.284,0,0,1,.181.125.572.572,0,0,1-.028.274l-.051.149a10,10,0,0,1-2.115,2.445,6.3,6.3,0,0,1-2.064,1.139,4.187,4.187,0,0,1-1.873.158,4.423,4.423,0,0,1-1.534-.511,3.932,3.932,0,0,1-1.078-.869,2.044,2.044,0,0,1-.483-.906m2.993-2.779a3.768,3.768,0,0,0,.7.121,1.777,1.777,0,0,0,.7-.084,1.663,1.663,0,0,0,.669-.432,3.668,3.668,0,0,0,.632-.948,1.4,1.4,0,0,0,.06-.665.853.853,0,0,0-.2-.4.6.6,0,0,0-.321-.167.812.812,0,0,0-.321,0,5.361,5.361,0,0,0-.535.4,3.394,3.394,0,0,0-.469.516,6.343,6.343,0,0,0-.437.7c-.144.265-.3.581-.479.944" transform="translate(70.759 42.279)" fill="#161615"/>
          <path id="Path_299" data-name="Path 299" d="M23.633,17.255a13.946,13.946,0,0,1,0-2.766,4.834,4.834,0,0,1,.451-1.631,2.03,2.03,0,0,1,.744-.813,3.153,3.153,0,0,1,.869-.33,1.685,1.685,0,0,1,1.315.121,1.2,1.2,0,0,1,.535.934,2.791,2.791,0,0,1-.353,1.455A5.355,5.355,0,0,1,25.85,15.87c.023.307.07.7.153,1.171s.172.934.27,1.394.191.874.284,1.227.139.581.153.66c.056,0,.228-.019.507-.046a6.1,6.1,0,0,0,1.074-.251,8.958,8.958,0,0,0,1.464-.618,8.471,8.471,0,0,0,1.687-1.195c.042-.009.093-.023.153-.033a.324.324,0,0,1,.288.121.251.251,0,0,1,.019.307l-.112.153A7.478,7.478,0,0,1,30.3,19.923a11.323,11.323,0,0,1-1.427.693,9.772,9.772,0,0,1-1.218.4,7.073,7.073,0,0,0-.851.256,3.4,3.4,0,0,0,.042.418,5.583,5.583,0,0,1,.06.609,5.3,5.3,0,0,1-.023.841,6.868,6.868,0,0,1-.2,1.069,3.275,3.275,0,0,1-.5,1.26,2.522,2.522,0,0,1-.772.711,2.336,2.336,0,0,1-.906.293,3.947,3.947,0,0,1-.906,0,4.425,4.425,0,0,1-.781-.167c-.232-.074-.414-.149-.548-.2a3.493,3.493,0,0,1-1.348-1.222,2.2,2.2,0,0,1-.321-.925,1.6,1.6,0,0,1,.242-1.013,3.356,3.356,0,0,1,1.088-1.009,8.69,8.69,0,0,1,2.189-.934c-.009-.265-.033-.572-.074-.934s-.093-.725-.149-1.083-.107-.693-.153-1.009-.079-.558-.1-.73m.5,4.676a6.475,6.475,0,0,0-1.7.488,2.2,2.2,0,0,0-.869.66,1.047,1.047,0,0,0-.228.73,1.625,1.625,0,0,0,.265.711,2.679,2.679,0,0,0,.576.623,2.9,2.9,0,0,0,.734.428,1.133,1.133,0,0,0,.753.107.735.735,0,0,0,.432-.372,1.928,1.928,0,0,0,.177-.72,7.127,7.127,0,0,0,0-.892c-.019-.316-.042-.627-.074-.934s-.06-.586-.074-.827M25.766,14.9c.186-.2.33-.349.432-.469a2.41,2.41,0,0,0,.242-.321,1.465,1.465,0,0,0,.139-.33c.037-.125.074-.279.125-.465a1.647,1.647,0,0,0,0-.59c-.037-.121-.088-.2-.163-.218a.531.531,0,0,0-.256,0,2.475,2.475,0,0,0-.242.079,1.437,1.437,0,0,0-.339.586,2.185,2.185,0,0,0-.074.618,3.978,3.978,0,0,0,.056.595c.033.186.056.363.074.511" transform="translate(75.084 42.473)" fill="#161615"/>
          <path id="Path_300" data-name="Path 300" d="M24.007,15.474a5.879,5.879,0,0,1,.86.2,3.152,3.152,0,0,1,.595.26,2.1,2.1,0,0,1,.372.265,1.3,1.3,0,0,1,.186.209c.046-.065.158-.27.335-.6s.4-.734.674-1.195.595-.939.962-1.436a8.394,8.394,0,0,1,1.162-1.306,4.227,4.227,0,0,1,1.283-.823,1.736,1.736,0,0,1,1.339,0,1.65,1.65,0,0,1,.451.242,1.389,1.389,0,0,1,.265.488,2.046,2.046,0,0,1-.144,1.148,7.183,7.183,0,0,1-.711,1.353,15.159,15.159,0,0,1-1.036,1.39c-.386.465-.758.883-1.111,1.25s-.669.688-.93.948-.432.418-.507.474a3.886,3.886,0,0,0,1.046.688,6.382,6.382,0,0,0,1.622.521,6.287,6.287,0,0,0,1.85.065,3.468,3.468,0,0,0,1.743-.693q.265-.07.321.014a.343.343,0,0,1,.019.242,1.212,1.212,0,0,1-.172.4,2.363,2.363,0,0,1-1.069.581,6.049,6.049,0,0,1-1.394.186,7.386,7.386,0,0,1-1.492-.112,10.966,10.966,0,0,1-1.376-.316,6.328,6.328,0,0,1-1.055-.414,1.11,1.11,0,0,1-.525-.442,35.824,35.824,0,0,0-1.446,3.528c-.4,1.143-.711,2.18-.944,3.119a17.15,17.15,0,0,0-.446,2.4,3.423,3.423,0,0,0,.056,1.394,1.648,1.648,0,0,0,.432.483,1.271,1.271,0,0,0,.739.256A2.347,2.347,0,0,0,27.019,30,5.006,5.006,0,0,0,28.4,28.99a14.162,14.162,0,0,0,1.687-2.059,31.484,31.484,0,0,0,1.994-3.365.323.323,0,0,1,.112-.088q.125-.056.293.1a.282.282,0,0,1,.112.191.82.82,0,0,1,0,.214.957.957,0,0,1-.088.26,32.16,32.16,0,0,1-2.282,3.769,13.236,13.236,0,0,1-1.975,2.25,4.981,4.981,0,0,1-1.678,1.023,2.65,2.65,0,0,1-1.38.088,2.568,2.568,0,0,1-1.083-.544,4.259,4.259,0,0,1-.785-.888,4.606,4.606,0,0,1-.488-.948,2.993,2.993,0,0,1-.2-.7,10.3,10.3,0,0,1,.033-2.236,17.722,17.722,0,0,1,.414-2.25c.186-.739.4-1.455.646-2.143s.488-1.32.734-1.9.479-1.088.688-1.529.367-.785.479-1.032c-.13-.1-.251-.2-.353-.293a2.574,2.574,0,0,0-.33-.265c-.116-.079-.246-.153-.381-.228s-.307-.149-.5-.228c-.288-.07-.455-.144-.5-.228a.192.192,0,0,1,.037-.232,1.485,1.485,0,0,1,.4-.256m7.725-3.565a.366.366,0,0,0-.335-.2.736.736,0,0,0-.339.135,1.573,1.573,0,0,0-.363.349,9.59,9.59,0,0,0-.785,1.278c-.246.483-.479.957-.693,1.432s-.4.911-.572,1.311-.293.7-.372.906c-.033.019.046-.065.232-.246s.437-.423.734-.725.618-.646.957-1.032a10.765,10.765,0,0,0,.9-1.167,5.519,5.519,0,0,0,.59-1.129,1.218,1.218,0,0,0,.042-.916" transform="translate(82.425 39.81)" fill="#161615"/>
          <path id="Path_301" data-name="Path 301" d="M32.478,22.159a5.008,5.008,0,0,1,.349,1.7,11.219,11.219,0,0,1-.079,1.645c-.07.53-.149,1.032-.242,1.515a6.23,6.23,0,0,0-.125,1.325,2.3,2.3,0,0,0,.251,1.055,1.628,1.628,0,0,0,.888.7,1.5,1.5,0,0,0,1.046-.014,4.27,4.27,0,0,0,1.176-.651,10.138,10.138,0,0,0,1.2-1.088,16.361,16.361,0,0,0,2.078-2.738,9.58,9.58,0,0,0,.646-1.255.4.4,0,0,1,.181-.153.165.165,0,0,1,.181.042.432.432,0,0,1,.1.237.92.92,0,0,1-.056.423,26.321,26.321,0,0,1-1.966,3.314A10.343,10.343,0,0,1,36.42,30.1a3.815,3.815,0,0,1-1.478.813,3.771,3.771,0,0,1-1.339.093,3.241,3.241,0,0,1-1.775-.855,3.468,3.468,0,0,1-.846-1.5,6.576,6.576,0,0,1-.228-1.882q.014-1.018.07-2.008c.037-.665.051-1.292.046-1.887a3.21,3.21,0,0,0-.321-1.483q-.962,2.21-1.743,3.993c-.228.507-.451,1.013-.669,1.511s-.428.948-.618,1.357-.349.744-.483,1.023a4.1,4.1,0,0,1-.274.511,3.589,3.589,0,0,1-.73.716.608.608,0,0,1-.558.139c-.139-.06-.228-.246-.26-.558a4.707,4.707,0,0,1,.153-1.38,2.63,2.63,0,0,1,.163-.79q.181-.607.474-1.394t.627-1.659c.223-.581.432-1.115.632-1.608s.358-.9.488-1.213a2.909,2.909,0,0,0,.177-.5q.376-.878.683-1.673t.627-1.576q.321-.781.7-1.562a16.193,16.193,0,0,1,.9-1.631.938.938,0,0,1,.418-.4,1.838,1.838,0,0,1,.535-.158,1.266,1.266,0,0,1,.465.014c.135.028.214.07.237.116a3.018,3.018,0,0,1,.037,1.023,9.2,9.2,0,0,1-.237,1.25c-.112.432-.242.869-.4,1.306s-.307.841-.465,1.2-.293.674-.418.925a3.113,3.113,0,0,1-.256.455,4.243,4.243,0,0,0,2.993-.042,4.093,4.093,0,0,0,1.934-2.11,4.242,4.242,0,0,0-.865-3.853,4.728,4.728,0,0,0-1.538-1.176,5.109,5.109,0,0,0-1.887-.53c-.446,0-.818.009-1.111.023a5.269,5.269,0,0,0-.813.116c-.251.06-.511.135-.776.223s-.6.191-1,.321a.421.421,0,0,1-.293-.009.371.371,0,0,1-.191-.163.307.307,0,0,1,0-.256.65.65,0,0,1,.311-.284,4.033,4.033,0,0,1,.7-.33,7.447,7.447,0,0,1,1-.293,7.969,7.969,0,0,1,1.222-.177,6.4,6.4,0,0,1,1.357.065,11.938,11.938,0,0,1,3.272.911A6.107,6.107,0,0,1,37.01,14.62a3.671,3.671,0,0,1,.892,1.552,4.974,4.974,0,0,1,.167,1.538,5.1,5.1,0,0,1-.218,1.3,7.072,7.072,0,0,1-.311.837,3.8,3.8,0,0,1-.832,1.12,5.07,5.07,0,0,1-1.25.86,4.89,4.89,0,0,1-1.469.446,3.391,3.391,0,0,1-1.511-.116" transform="translate(91.942 44.797)" fill="#161615"/>
          <path id="Path_302" data-name="Path 302" d="M28.054,20.835a5.577,5.577,0,0,1,.065-1.39,9.653,9.653,0,0,1,.4-1.552,8.072,8.072,0,0,1,.7-1.492,4.807,4.807,0,0,1,1-1.195,3.084,3.084,0,0,1,1.292-.66,2.783,2.783,0,0,1,1.566.107c.167.07.358.149.576.232a2.173,2.173,0,0,1,.586.349,1.407,1.407,0,0,1,.4.567,1.471,1.471,0,0,1,.023.874,2.975,2.975,0,0,1-.8,1.357,3.379,3.379,0,0,1-1.1.693,2.855,2.855,0,0,1-1.1.191,1.755,1.755,0,0,1-.795-.163,6.264,6.264,0,0,0-.353,1.729,2.559,2.559,0,0,0,.135.967,1.028,1.028,0,0,0,.367.488,1.521,1.521,0,0,1,.358.316,1.217,1.217,0,0,0,.6.191,2.471,2.471,0,0,0,1.176-.218,6.8,6.8,0,0,0,1.673-1.064A13.383,13.383,0,0,0,36.946,18.8a.887.887,0,0,1,.153.028.284.284,0,0,1,.181.125.572.572,0,0,1-.028.274l-.051.149a9.995,9.995,0,0,1-2.115,2.445,6.3,6.3,0,0,1-2.064,1.139,4.187,4.187,0,0,1-1.873.158,4.423,4.423,0,0,1-1.534-.511,3.932,3.932,0,0,1-1.078-.869,2.044,2.044,0,0,1-.483-.906m2.993-2.779a3.767,3.767,0,0,0,.7.121,1.777,1.777,0,0,0,.7-.084,1.663,1.663,0,0,0,.669-.432,3.667,3.667,0,0,0,.632-.948,1.4,1.4,0,0,0,.06-.665.853.853,0,0,0-.2-.4.6.6,0,0,0-.321-.167.812.812,0,0,0-.321,0,5.36,5.36,0,0,0-.535.4,3.4,3.4,0,0,0-.469.516,6.345,6.345,0,0,0-.437.7c-.144.265-.3.581-.479.944" transform="translate(102.273 52.818)" fill="#161615"/>
          <path id="Path_303" data-name="Path 303" d="M39.085,20.119a.513.513,0,0,1,.135.023.37.37,0,0,1,.2.149.322.322,0,0,1,.023.293.685.685,0,0,1-.074.158A7.915,7.915,0,0,1,37.7,22.629a8.732,8.732,0,0,1-1.831,1.143,7.3,7.3,0,0,1-1.8.562,8.351,8.351,0,0,1-1.6.126,2.042,2.042,0,0,1-1.357-.525,3.734,3.734,0,0,1-.939-1.283,4.789,4.789,0,0,1-.414-1.692A4.479,4.479,0,0,1,29.98,19.2a11.317,11.317,0,0,1,1.213-2.6,4.61,4.61,0,0,1,1.283-1.325,2.323,2.323,0,0,1,1.25-.39,2.941,2.941,0,0,1,1.111.228,3.769,3.769,0,0,1,.869.516,4.116,4.116,0,0,1,.516.469,1.553,1.553,0,0,1,.409.8,1.734,1.734,0,0,1-.074.772,2.427,2.427,0,0,1-.372.7,4.247,4.247,0,0,1-.479.558.53.53,0,0,1-.242.144.23.23,0,0,1-.167-.046.415.415,0,0,1-.121-.135.19.19,0,0,0-.1-.093,6.473,6.473,0,0,0,.72-1.232,1.611,1.611,0,0,0,.135-.72.568.568,0,0,0-.158-.376.8.8,0,0,1-.172-.214,1.143,1.143,0,0,0-1.027.321,4.869,4.869,0,0,0-1,1.195,9.693,9.693,0,0,0-.813,1.678,8.732,8.732,0,0,0-.483,1.771,3.835,3.835,0,0,0,.023,1.469.935.935,0,0,0,.693.762,3.4,3.4,0,0,0,1.162.1,4.149,4.149,0,0,0,1.115-.26,5.651,5.651,0,0,0,1.032-.521,10.164,10.164,0,0,0,.92-.665,11.687,11.687,0,0,0,1.868-1.989" transform="translate(108.509 54.301)" fill="#44b6d0"/>
          <path id="Path_304" data-name="Path 304" d="M37.418,19.651a9.4,9.4,0,0,0,.335-1.729,2.1,2.1,0,0,0-.079-.8.339.339,0,0,0-.376-.228,4.8,4.8,0,0,0-1.241.9A8.91,8.91,0,0,0,35,19.056a11.781,11.781,0,0,0-.832,1.4,11.355,11.355,0,0,0-.576,1.3,4.785,4.785,0,0,0-.274.99c-.033.27-.009.418.079.446a1.022,1.022,0,0,0,.567-.046,2.854,2.854,0,0,0,.646-.316,3.936,3.936,0,0,0,.609-.479,2.343,2.343,0,0,0,.446-.567,5.64,5.64,0,0,1,.548-.827,1.642,1.642,0,0,1,.46-.4.434.434,0,0,1,.353-.046.429.429,0,0,1,.228.232,2.225,2.225,0,0,1,.376.86.941.941,0,0,1-.2.809,12.091,12.091,0,0,0-.758,1.822,3.212,3.212,0,0,0-.172.93c.009.2.06.307.158.33a.588.588,0,0,0,.251.014,4.083,4.083,0,0,0,1.1-.493A8.388,8.388,0,0,0,39.356,24,15.185,15.185,0,0,0,40.8,22.459a18.735,18.735,0,0,0,1.446-2.031.619.619,0,0,1,.186-.06.205.205,0,0,1,.237.139.368.368,0,0,1,.079.376,1.119,1.119,0,0,1-.084.2,22.215,22.215,0,0,1-1.6,2.212,14.053,14.053,0,0,1-1.371,1.441,6.852,6.852,0,0,1-1.139.846,5.585,5.585,0,0,1-.916.418,5.759,5.759,0,0,1-.683.177,1.724,1.724,0,0,0-.455.135,1.613,1.613,0,0,1-.855-.121,1.09,1.09,0,0,1-.465-.451,1.9,1.9,0,0,1-.191-.646,3.572,3.572,0,0,1-.019-.7q.021-.342.056-.627c.019-.186.028-.316.028-.386a3.789,3.789,0,0,1-1.106.488,3.421,3.421,0,0,1-.9.1,1.887,1.887,0,0,1-.651-.135,1.1,1.1,0,0,1-.363-.237,1.249,1.249,0,0,1-.679-.99,3.8,3.8,0,0,1,.135-1.562,8.7,8.7,0,0,1,.734-1.794,11.152,11.152,0,0,1,1.115-1.72,7.742,7.742,0,0,1,1.3-1.315,2.512,2.512,0,0,1,1.246-.581,2.082,2.082,0,0,1,1.153.149,1.8,1.8,0,0,1,.716.618,2.377,2.377,0,0,1,.349.883,5.242,5.242,0,0,1,.088.957,4.542,4.542,0,0,1-.079.841,1.8,1.8,0,0,1-.158.511Z" transform="translate(114.272 56.934)" fill="#44b6d0"/>
          <path id="Path_305" data-name="Path 305" d="M42.965,22.265a.192.192,0,0,1,.126-.065c.084-.009.186.051.3.186a.333.333,0,0,1,.051.344.855.855,0,0,1-.079.177c-.576,1.115-1.106,2.059-1.585,2.84A23.07,23.07,0,0,1,40.47,27.69,10.026,10.026,0,0,1,39.391,28.9a5.862,5.862,0,0,1-.869.669,2.465,2.465,0,0,1-.683.3c-.2.051-.372.084-.516.107a2.624,2.624,0,0,1-1.05-.028,2.547,2.547,0,0,1-.832-.358,2.146,2.146,0,0,1-.576-.562,1.65,1.65,0,0,1-.284-.623,4.046,4.046,0,0,1-.056-1.3A7.6,7.6,0,0,1,34.8,25.8a9.012,9.012,0,0,1,.474-1.241c.186-.4.376-.762.567-1.106s.372-.651.548-.911.316-.469.423-.623A3.511,3.511,0,0,1,35.7,21.75a3.844,3.844,0,0,1-.9-.423,2.792,2.792,0,0,1-.665-.581,2.481,2.481,0,0,1-.4-.655c-.056-.316-.1-.614-.144-.883a4.225,4.225,0,0,1-.037-.8,3.138,3.138,0,0,1,.553-1.622,2.55,2.55,0,0,1,.669-.595,1.708,1.708,0,0,1,.683-.242,1.173,1.173,0,0,1,.618.107,1.054,1.054,0,0,1,.46.418,1.042,1.042,0,0,1,.177.846,2.146,2.146,0,0,1-.39.776,5.745,5.745,0,0,1-.674.725c-.256.237-.488.46-.693.679a1.009,1.009,0,0,0,.349.781,2.353,2.353,0,0,0,.8.465,3.605,3.605,0,0,0,.934.177,2.048,2.048,0,0,0,.744-.065,1.424,1.424,0,0,1,.669-.014,1.18,1.18,0,0,1,.525.27.845.845,0,0,1,.265.483,1.153,1.153,0,0,1-.088.655c-.121.367-.237.674-.344.916s-.218.465-.325.669-.223.414-.344.632-.26.483-.423.795A11.333,11.333,0,0,0,36.9,27.29a3.875,3.875,0,0,0-.158,1.139.859.859,0,0,0,.256.641.916.916,0,0,0,.809-.009,3.5,3.5,0,0,0,.939-.632,9.131,9.131,0,0,0,.995-1.078c.33-.418.651-.855.967-1.311q1.095-1.617,2.264-3.774M34.6,18.752c.218-.251.414-.455.572-.614s.3-.3.4-.418a1.692,1.692,0,0,0,.246-.335.936.936,0,0,0,.1-.376.752.752,0,0,0-.13-.288.368.368,0,0,0-.237-.112.723.723,0,0,0-.451.149,1.856,1.856,0,0,0-.53.985,2.147,2.147,0,0,0,.028,1.009" transform="translate(122.347 58.164)" fill="#44b6d0"/>
          <path id="Path_306" data-name="Path 306" d="M41.742,35a1.659,1.659,0,0,0,.693-.437,11.006,11.006,0,0,0,1.241-1.32c.5-.6,1.092-1.376,1.771-2.333s1.45-2.129,2.305-3.5a.6.6,0,0,1,.153.033l.107.037c.037.009.06.033.06.06a.486.486,0,0,1,.051.339,1.721,1.721,0,0,1-.06.246q-1.325,2.133-2.347,3.588A29.867,29.867,0,0,1,43.9,34.093a8.5,8.5,0,0,1-1.418,1.366,2.806,2.806,0,0,1-1.106.535,1.358,1.358,0,0,1-.892-.139,3.089,3.089,0,0,1-.79-.6,2.11,2.11,0,0,1-.446-1.195,6.478,6.478,0,0,1,.042-1.436,13.453,13.453,0,0,1,.251-1.362,5.732,5.732,0,0,0,.167-.995,3.775,3.775,0,0,1-1.525,1.167,2.4,2.4,0,0,1-1.232.125,2,2,0,0,1-.86-.4,2.543,2.543,0,0,1-.4-.414,2.27,2.27,0,0,1-.455-1.148,5.456,5.456,0,0,1,.019-1.478,8.68,8.68,0,0,1,.386-1.608A10.937,10.937,0,0,1,36.258,25a6.572,6.572,0,0,1,.748-1.167,1.721,1.721,0,0,1,.739-.59,2.88,2.88,0,0,1,1.032-.181,3.426,3.426,0,0,1,.967.163,4.6,4.6,0,0,1,.906.39c.293.167.586.349.874.544a32.761,32.761,0,0,1,1.334-3.193,18.686,18.686,0,0,1,1.236-2.2,10.948,10.948,0,0,1,1.092-1.418,7.88,7.88,0,0,1,.911-.823,4.451,4.451,0,0,1,.7-.437,2.744,2.744,0,0,0,.446-.232,3.163,3.163,0,0,1,1.445-.386.919.919,0,0,1,.753.409,1.558,1.558,0,0,1,.186.962,6.541,6.541,0,0,1-.232,1.315,8.593,8.593,0,0,1-.516,1.385,10.264,10.264,0,0,1-.665,1.227c-.744,1.12-1.371,2.026-1.882,2.728s-.962,1.274-1.353,1.72-.739.818-1.046,1.12-.627.6-.953.92c-.5,1.413-.883,2.612-1.153,3.607a17.83,17.83,0,0,0-.525,2.417,3.633,3.633,0,0,0,0,1.334c.079.27.228.4.442.376m-4.23-4.341a.882.882,0,0,0,.7,0,3.146,3.146,0,0,0,.758-.4A5.073,5.073,0,0,0,39.6,29.7a1.569,1.569,0,0,0,.321-.437c.125-.344.26-.725.4-1.157s.265-.851.386-1.269.223-.8.321-1.139.167-.6.228-.772a2.2,2.2,0,0,0-1.608-.293,2.514,2.514,0,0,0-1.232.776,4.486,4.486,0,0,0-.841,1.422,7.584,7.584,0,0,0-.437,1.636,5.318,5.318,0,0,0-.028,1.427c.06.409.2.665.409.762m5.615-4.513a11.89,11.89,0,0,0,1.041-1.162q.53-.655,1.334-1.757t1.91-2.812a12.1,12.1,0,0,0,1.134-2.38,3.289,3.289,0,0,0,.2-1.269c-.042-.265-.139-.414-.3-.446a.381.381,0,0,0-.363.07,14.215,14.215,0,0,0-1.325,1.827c-.418.679-.809,1.366-1.176,2.078s-.7,1.394-1,2.073-.558,1.283-.767,1.831-.372.99-.488,1.348-.186.558-.2.6" transform="translate(128.367 56.436)" fill="#44b6d0"/>
          <path id="Path_307" data-name="Path 307" d="M40.213,22.8a13.994,13.994,0,0,1,0-2.77,4.835,4.835,0,0,1,.451-1.627,2,2,0,0,1,.744-.813,3.167,3.167,0,0,1,.869-.335,1.683,1.683,0,0,1,1.315.125,1.188,1.188,0,0,1,.535.934,2.791,2.791,0,0,1-.353,1.455,5.465,5.465,0,0,1-1.339,1.645c.023.307.07.7.153,1.167s.172.934.27,1.394.191.874.284,1.227.139.581.153.665l.507-.051a5.641,5.641,0,0,0,1.074-.246,9.02,9.02,0,0,0,1.464-.623,8.433,8.433,0,0,0,1.687-1.19.97.97,0,0,1,.153-.033.31.31,0,0,1,.288.116.257.257,0,0,1,.019.311l-.112.149a7.343,7.343,0,0,1-1.492,1.167,12.848,12.848,0,0,1-1.427.7,10.508,10.508,0,0,1-1.218.4,6.309,6.309,0,0,0-.851.256,3.339,3.339,0,0,0,.042.414,5.705,5.705,0,0,1,.06.609,5.29,5.29,0,0,1-.023.841,6.919,6.919,0,0,1-.2,1.074,3.221,3.221,0,0,1-.5,1.255,2.466,2.466,0,0,1-.772.711,2.343,2.343,0,0,1-.906.3,3.946,3.946,0,0,1-.906,0,4.035,4.035,0,0,1-.781-.172c-.232-.074-.414-.144-.548-.2a3.028,3.028,0,0,1-.706-.474,3.176,3.176,0,0,1-.641-.744,2.275,2.275,0,0,1-.325-.925,1.628,1.628,0,0,1,.246-1.013A3.363,3.363,0,0,1,38.5,27.487a9.043,9.043,0,0,1,2.189-.934c-.009-.26-.033-.572-.074-.934s-.093-.72-.149-1.078-.107-.7-.153-1.013-.079-.558-.1-.725m.5,4.676a6.476,6.476,0,0,0-1.7.488,2.239,2.239,0,0,0-.869.655,1.058,1.058,0,0,0-.228.734,1.625,1.625,0,0,0,.265.711,2.661,2.661,0,0,0,.576.618,2.79,2.79,0,0,0,.734.432,1.133,1.133,0,0,0,.753.107.744.744,0,0,0,.432-.376,1.9,1.9,0,0,0,.177-.716,7.2,7.2,0,0,0,0-.9c-.019-.311-.042-.623-.074-.934s-.06-.586-.074-.823m1.636-7.028c.186-.2.33-.353.432-.469a2.161,2.161,0,0,0,.242-.325,1.382,1.382,0,0,0,.139-.33c.037-.121.074-.274.125-.46a1.644,1.644,0,0,0,0-.59c-.037-.121-.088-.2-.163-.218a.437.437,0,0,0-.256,0c-.1.028-.181.056-.242.074a1.422,1.422,0,0,0-.339.59,2.164,2.164,0,0,0-.074.618,3.971,3.971,0,0,0,.056.59c.033.191.056.363.074.516" transform="translate(135.557 62.698)" fill="#44b6d0"/>
        </g>
      </g>
      <text id="_1" data-name="1" transform="translate(122.205 197.012) rotate(17.893)" fill="#161615" font-size="42" font-family="SegoeUI, Segoe UI"><tspan x="0" y="0">1</tspan></text>
      <text id="Nederland" transform="matrix(0.952, 0.307, -0.307, 0.952, 34.505, 185.916)" fill="#161615" font-size="17" font-family="SegoeUI, Segoe UI"><tspan x="0" y="0">Nederland</tspan></text>
    </g>
  </g>
</svg>
