<svg xmlns="http://www.w3.org/2000/svg" width="149.919" height="151.385" viewBox="0 0 149.919 151.385">
  <g id="rocket" transform="translate(-1.618 -1.315)">
    <path id="Path_188" data-name="Path 188" d="M151.133,3.428a2.287,2.287,0,0,0-2.269-2.1c-32.7-.6-63.411,23.31-76.881,35.491-2.15.072-4.275.1-6.329.143-14.593.191-28.374.382-38.882,13.8C17.29,62.9,6.877,77.037,3.676,91.319c-.215.931-.836,3.75,1.027,5.756a5.149,5.149,0,0,0,3.821,1.552,6.553,6.553,0,0,0,2.723-.621,12.05,12.05,0,0,0,3.8-3.224c.788-.884,1.576-1.839,2.388-2.794,6.4-7.5,13.518-15.835,22.594-16.886A140.567,140.567,0,0,0,31.6,90.531c-2.221,4.777-6.305,13.614-5.135,21.686-6.329,1.314-23.048,5.469-24.648,12.587-1.146,5.087,3.033,6.974,5.278,7.977,2.938,1.314,2.938,1.5,2.245,3.224l-.43,1c-2.15,4.992-4.06,10.127-1.958,13.375a5.352,5.352,0,0,0,4.705,2.317H11.7c3.535,0,6.95-3.726,11.034-8.622a10.229,10.229,0,0,0,.621.908,10.03,10.03,0,0,0,8.288,3.8,11.977,11.977,0,0,0,9.84-6.329,23.073,23.073,0,0,0,1.958-16.241c7.714-.334,16.05-4.705,22.068-7.858l1.982-1.051c5.8-3.009,11.416-6.281,16.79-9.768,1.481,10.676-6.353,24.266-12.634,31.431a10.753,10.753,0,0,0-2.508,3.941,5.272,5.272,0,0,0,2.1,6.066,4.8,4.8,0,0,0,2.532.669,8.746,8.746,0,0,0,3.129-.693c13.4-5.183,25.436-16.814,35.682-27.3,11.416-11.7,9.267-24.17,7-37.4-.31-1.815-.621-3.678-.908-5.541,2.675-2.914,5.254-5.851,7.667-8.885a127.817,127.817,0,0,0,23.215-44.877c2.221-8.192,2.293-13.47,1.576-21.519Zm-6.09,20.253c-.287,1.051-.645,2.078-.955,3.1-9.267-.693-17.507-8.526-20.755-16.384a76.44,76.44,0,0,1,23.358-4.49A46.1,46.1,0,0,1,145.043,23.681Zm-131.12,65.3c-.812.955-1.6,1.863-2.412,2.818a7.876,7.876,0,0,1-2.221,2.03,1.6,1.6,0,0,1-1.17.1s-.191-.287.1-1.6C11.2,78.972,21.255,65.334,30.426,53.607c9.147-11.679,20.683-11.822,35.3-12.037.406,0,.86-.024,1.266-.024A188.217,188.217,0,0,0,43.036,70.4C30.4,69.7,21.279,80.357,13.922,88.979Zm23.525,51.135a7.4,7.4,0,0,1-6.114,4.036,5.4,5.4,0,0,1-4.347-2.03,2.769,2.769,0,0,1-.621-2.484,2.345,2.345,0,0,0-.931-2.651,2.3,2.3,0,0,0-2.794.215,38.262,38.262,0,0,0-3.3,3.678c-1.791,2.15-5.947,7.165-7.643,7.165-.525,0-.812-.1-.884-.191-.621-.955.167-3.989,2.317-9l.454-1.075c2.484-6.019-2.317-8.192-4.61-9.219-2.866-1.29-2.914-1.624-2.675-2.747.717-3.248,12.515-7.332,21.376-9.147a15.161,15.161,0,0,0,.979,1.839,15.344,15.344,0,0,0,9.744,7.308,18,18,0,0,1-.955,14.306ZM115,85.038c2.245,13.064,4.012,23.358-5.732,33.365-9.912,10.15-21.519,21.376-34.058,26.224a4.887,4.887,0,0,1-1.457.382c-.119,0-.143,0-.143-.024a.973.973,0,0,1-.048-.74,7.442,7.442,0,0,1,1.624-2.293c6.234-7.093,16.6-23.645,13.255-37.234A179.209,179.209,0,0,0,114.687,82.96c.072.669.191,1.385.31,2.078Zm7.667-18.1C108.31,85.181,88.463,101.159,65.32,113.2l-2.006,1.051c-12.61,6.64-24.433,11.775-30.69,1.791a10.27,10.27,0,0,1-1.1-2.388v-.024c0-.072-.048-.1-.072-.167-1.887-6.043,1.075-13.9,4.347-20.994A142.581,142.581,0,0,1,45.735,74.72a2.411,2.411,0,0,0,.955-1.433A181.983,181.983,0,0,1,70.765,44.341c1.1-1.075,2.221-2.15,3.391-3.224a2.226,2.226,0,0,0,.74-.669c12.109-11.01,27.7-21.877,44.113-28.4,3.7,9.1,12.849,17.937,23.6,19.274A126.141,126.141,0,0,1,122.664,66.934Z" transform="translate(0 0)"/>
    <path id="Path_189" data-name="Path 189" d="M53.827,15.21c-9.171,0-16.647,7.093-16.647,15.811s7.476,15.811,16.647,15.811,16.647-7.093,16.647-15.811S63,15.21,53.827,15.21Zm0,26.964c-6.616,0-12.013-5.016-12.013-11.177S47.187,19.82,53.827,19.82C60.443,19.82,65.84,24.835,65.84,31,65.816,37.183,60.443,42.174,53.827,42.174Z" transform="translate(49.372 19.291)"/>
    <path id="Path_190" data-name="Path 190" d="M22.865,43.69c-3.75,8.526-3.893,16.193-3.033,16.241.955.119,2.508-6.9,6.043-14.927,3.463-8.025,7.595-13.972,6.855-14.569-.621-.573-6.162,4.729-9.864,13.255Z" transform="translate(24.686 40.369)"/>
    <path id="Path_191" data-name="Path 191" d="M49.508,41.853c-.931.143-1.075,3.989-1.791,8.55-.669,4.562-1.7,8.288-.836,8.694.788.43,3.344-3.057,4.108-8.192.812-5.135-.6-9.219-1.481-9.052Z" transform="translate(62.385 56.273)"/>
  </g>
</svg>
