<svg xmlns="http://www.w3.org/2000/svg" width="184.438" height="167.744" viewBox="0 0 184.438 167.744">
  <g id="select" transform="translate(-1.837 -4.836)">
    <path id="Path_211" data-name="Path 211" d="M183.323,147.247c-3.735-8.333-7.183-15.8-10.631-23.274s-6.9-14.941-10.631-23.274c-4.6-10.344-13.217-27.584-17.24-34.767-5.172-8.907-10.344-10.918-46.547-39.364-8.907-6.9-17.814-14.079-27.3-21.262a2.155,2.155,0,0,0-2.586,3.448c9.482,7.183,18.389,14.366,27.3,21.262,35.916,28.158,40.8,29.882,45.4,38.215,7.758,13.792,17.814,35.916,34.192,71.545a22.917,22.917,0,0,0,.287,26.147c-7.183,0-10.631-6.9-14.079-12.93-13.792-24.136-28.446-47.122-47.7-67.81a2.111,2.111,0,0,0-1.724-.575c-7.183-3.161-13.217-.575-17.24,1.437-19.538,10.631-21.55,31.319-17.24,53.443,1.437,6.9,2.873,13.792,0,20.113a19.357,19.357,0,0,0-1.724-4.885c-4.023-8.045-14.654-7.758-14.941,6.609-4.885-8.907-3.448-29.02-5.747-44.249C52.014,96.1,41.383,77.426,31.039,59.037,29.028,55.589,10.926,27.143,6.616,21.4a2.014,2.014,0,0,0-3.448,0c-2.873,1.437-.287,11.78.287,13.217C9.2,46.107,17.534,55.876,24.43,66.507a158.685,158.685,0,0,1,25.285,73.269c.575,6.9.575,14.079,3.448,20.4,4.6,10.344,15.8,15.228,24.136,7.183,4.31-3.735,6.609-9.769,6.321-17.24-.287-9.769-5.172-20.975-3.161-35.341,13.5,11.493,20.113,22.124,29.308,14.366,4.023-2.586,4.885-6.034,11.206-16.378a64.563,64.563,0,0,0,3.448-6.034c11.493,16.09,19.826,33.617,30.457,50.283,4.023,6.321,8.62,12.642,15.8,14.941,6.9,2.011,13.5-.862,14.654-8.333C187.92,157.591,184.472,150.12,183.323,147.247Zm-6.034-2.586c2.873,6.034,7.758,15.516,2.586,20.113A19.026,19.026,0,0,1,177.289,144.661ZM68.1,153.855c1.437-.287,3.161,1.149,4.023,2.873,1.149,2.3,1.437,4.31,2.873,6.9-3.161,2.873-6.609,3.448-9.482,2.3C64.944,162.475,64.944,154.43,68.1,153.855Zm44.249-34.479c-4.31,8.333-7.471,8.045-12.642,4.31-12.355-9.195-15.8-14.941-17.527-15.516A31.582,31.582,0,0,1,92.814,92.654a2.419,2.419,0,0,0,1.149,2.011,11.908,11.908,0,0,1,6.609,7.758,2.2,2.2,0,0,0,4.31-.575A21.507,21.507,0,0,1,107.756,91.5a2.194,2.194,0,0,0-3.735-2.3,20.739,20.739,0,0,0-2.586,5.747,15.063,15.063,0,0,0-5.747-4.31c3.735-2.3,7.758-4.023,12.068-3.161,3.735,2.3,11.78,12.355,14.079,15.516C119.249,108.17,114.939,114.491,112.353,119.376Z" transform="translate(0 0)"/>
    <path id="Path_212" data-name="Path 212" d="M48.817,34a2.194,2.194,0,0,0,3.735-2.3,21.861,21.861,0,0,0-10.344-8.62c-2.586-.862-4.31,3.161-1.437,4.023A18.576,18.576,0,0,1,48.817,34Z" transform="translate(70.144 33.947)"/>
    <path id="Path_213" data-name="Path 213" d="M46.411,9.2A2.221,2.221,0,0,0,44.4,11.5l1.437,12.068c.287,2.873,4.6,2.3,4.31-.575L48.71,10.924C48.71,10.062,47.561,9.2,46.411,9.2Z" transform="translate(79.733 8.174)"/>
    <path id="Path_214" data-name="Path 214" d="M56.774,10.084a87.556,87.556,0,0,0-6.9,16.09c-.862,2.586,3.161,4.023,4.023,1.437A104.85,104.85,0,0,1,60.51,12.1,2.123,2.123,0,1,0,56.774,10.084Z" transform="translate(89.771 7.577)"/>
    <path id="Path_215" data-name="Path 215" d="M57.681,32.875,73.484,16.5a2.137,2.137,0,1,0-3.161-2.873L54.52,30C52.509,31.726,55.669,34.886,57.681,32.875Z" transform="translate(97.484 14.956)"/>
  </g>
</svg>
