<svg xmlns="http://www.w3.org/2000/svg" width="191.03" height="180.194" viewBox="0 0 191.03 180.194">
  <g id="thumb" transform="translate(-1.457 -3.22)">
    <path id="Path_217" data-name="Path 217" d="M176.784,88.585c-15.235,3.223-29,20.509-43.361,14.649-7.91-2.93-10.84-11.719-9.375-26.954a455.817,455.817,0,0,0,1.758-56.545c0-3.516-.293-6.446-1.758-9.375-2.637-5.567-9.082-7.324-12.891-2.93a6.813,6.813,0,0,0-3.223,3.223c-6.446,10.547-7.91,55.373-10.254,60.354-.879,1.758-2.344,3.223-3.809,2.637,0,.293.293.586.293.879-3.516-4.1-3.516-14.063-19.044-55.959a24.64,24.64,0,0,0-4.688-8.5c-4.395-4.1-11.133-3.809-13.184,2.051-3.516,5.86-1.465,12.305.586,18.751C72.776,77.745,74.534,79.5,72.483,82.725a7.768,7.768,0,0,1-1.758-1.465C45.529,56.65,41.72,41.415,34.1,36.727,25.9,31.454,17.7,38.485,18.282,48.447c1.172,17.872,35.744,42.775,38.38,52.15a6.438,6.438,0,0,1-.293,4.1c-2.637.586-5.567-1.172-8.2-2.637C20.04,84.483,17.7,82.725,12.422,82.432,4.8,81.846-1.641,88.878,3.047,97.081c4.395,18.751,33.4,17.286,48.928,44.24,8.5,14.942,9.082,35.451,36.915,38.38,7.617.879,15.528,0,23.145-.879,6.153-.586,12.6-1.758,17.872-4.395,3.516-2.051,2.637-7.324-1.172-7.91a16.7,16.7,0,0,0-3.809-.293c9.961-6.739,12.891-12.6,17.872-20.509,8.2-13.77,19.337-24.9,34.572-31.642,5.274-2.344,10.254-4.1,13.477-9.082C195.535,96.788,189.968,85.948,176.784,88.585Zm9.668,14.063c-2.637,3.809-6.739,5.274-11.426,7.324-25.2,11.426-36.915,33.986-37.5,34.865-11.133,18.751-27.247,26.368-41.6,25.782-6.446,0-12.6,0-17.579-3.516-7.032-4.981-11.133-13.184-14.356-21.095a62.808,62.808,0,0,0-27.54-31.349c-7.91-4.395-15.821-9.668-26.368-16.114C6.563,96.5,3.926,92.1,6.27,89.171c.879-1.465,3.223-2.637,5.567-2.637,4.1.293,6.153,2.051,33.986,18.751,2.344,1.465,5.274,3.223,8.789,3.516s7.91-1.758,8.789-5.86c2.344-10.254-15.528-13.77-38.087-54.2-1.758-2.93-2.051-7.617.586-9.082,1.465-.879,3.809-.586,5.567.586C34.1,42,36.154,45.224,37.912,47.861A208.287,208.287,0,0,0,67.5,84.19c6.446,6.446,13.77,2.637,10.84-7.032C62.815,22.664,58.42,15.047,62.815,12.117c1.465-.879,3.516-.293,4.981,1.172,4.688,4.395,17.872,50.393,19.63,56.545,1.758,6.739,4.981,10.254,9.082,10.254.293,0,4.395.293,7.032-4.688a22.28,22.28,0,0,0,1.758-7.325c7.032-48.635,6.153-57.717,10.84-58.6,1.758-.293,3.223,1.172,4.1,2.93a19.842,19.842,0,0,1,1.172,7.617,507.816,507.816,0,0,1-1.758,55.959c-.879,11.133-.879,26.661,12.012,31.642,16.993,6.739,31.349-11.719,46-14.649,3.223-.586,8.789-.586,9.961,4.1.586,1.465,0,3.809-1.172,5.567Z" transform="translate(0 3.349)"/>
    <path id="Path_218" data-name="Path 218" d="M47.624,13.708a43.729,43.729,0,0,0,7.91-6.739,2.179,2.179,0,1,0-3.223-2.93,37.1,37.1,0,0,1-7.324,6.153,2.272,2.272,0,0,0-.586,2.93,2.745,2.745,0,0,0,3.223.586Z" transform="translate(82.284 0)"/>
    <path id="Path_219" data-name="Path 219" d="M47.1,13.962c.293,0,.293,0,12.891-1.758,2.93-.293,2.344-4.688-.586-4.395L46.81,9.567C44.173,9.86,44.466,13.962,47.1,13.962Z" transform="translate(83.976 8.829)"/>
    <path id="Path_220" data-name="Path 220" d="M47.774,11.637A2.281,2.281,0,0,0,45.137,13.4,1.877,1.877,0,0,0,46.9,15.739C54.513,17.2,58.321,18.962,59.2,18.962c2.344,0,2.93-3.516.586-4.395A79.9,79.9,0,0,0,47.774,11.637Z" transform="translate(84.184 16.134)"/>
  </g>
</svg>
