<svg id="truck" xmlns="http://www.w3.org/2000/svg" width="66.572" height="36.787" viewBox="0 0 66.572 36.787">
  <path id="Path_1311" data-name="Path 1311" d="M68.072,39.9c-9.411-15.78-18.99-15.541-19.358-15.528H19.184a4.535,4.535,0,0,0-4.53,4.53v2.009H6.917a.9.9,0,0,0,0,1.794h7.736v5.264h-6.4a.9.9,0,0,0,0,1.794h6.4v11.43a4.425,4.425,0,0,0,4.418,4.418H21.25a6.592,6.592,0,0,0,13.016,0H51.141a6.6,6.6,0,0,0,13.023,0h1.722a4.425,4.425,0,0,0,4.42-4.42c0-5.1.339-6.982-2.235-11.29Zm-2.807-.45h-11.9a2.862,2.862,0,0,1-2.881-3.076V26.776c2.822.685,8.719,3.233,14.783,12.67ZM32.2,54.558a4.442,4.442,0,1,1-4.442-4.442A4.442,4.442,0,0,1,32.2,54.558Zm29.9,0a4.449,4.449,0,1,1-4.442-4.442A4.449,4.449,0,0,1,62.1,54.558Zm6.057-3.373a2.271,2.271,0,0,1-2.268,2.268H64.158a6.6,6.6,0,0,0-13.01,0c-17.808,0-16.864.072-16.885,0a6.595,6.595,0,0,0-13,0H19.071A2.27,2.27,0,0,1,16.8,51.186V39.761h8.626a.9.9,0,1,0,0-1.794H16.806V32.7h2.472a.9.9,0,1,0,0-1.794H16.806V28.9a2.38,2.38,0,0,1,2.377-2.377H48.329V36.37c0,1.808,1.052,5.228,5.034,5.228,14.626,0,13.154-.117,13.378.273,1.691,2.949,1.414,5.145,1.414,9.316ZM4.647,44.948a.9.9,0,1,1,0-1.794h7.216a.9.9,0,1,1,0,1.794Z" transform="translate(-3.75 -24.366)" fill="#416f8a"/>
</svg>
